M48
; DRILL file {KiCad (5.1.5)-2} date 7/16/2020 6:28:10 PM
; FORMAT={-:-/ absolute / metric / decimal}
; #@! TF.CreationDate,2020-07-16T18:28:10-07:00
; #@! TF.GenerationSoftware,Kicad,Pcbnew,(5.1.5)-2
; #@! TF.FileFunction,Plated,1,2,PTH
FMAT,2
METRIC
T1C0.800
T2C0.900
T3C1.000
T4C1.100
T5C1.200
T6C1.300
%
G90
G05
T1
X69.85Y-19.05
X69.85Y-26.67
X106.68Y-44.45
X106.68Y-46.99
X106.68Y-49.53
X106.68Y-52.07
X106.68Y-54.61
X106.68Y-57.15
X106.68Y-59.69
X106.68Y-62.23
X106.68Y-64.77
X106.68Y-67.31
X106.68Y-69.85
X106.68Y-72.39
X106.68Y-74.93
X106.68Y-77.47
X106.68Y-80.01
X121.92Y-44.45
X121.92Y-46.99
X121.92Y-49.53
X121.92Y-52.07
X121.92Y-54.61
X121.92Y-57.15
X121.92Y-59.69
X121.92Y-62.23
X121.92Y-64.77
X121.92Y-67.31
X121.92Y-69.85
X121.92Y-72.39
X121.92Y-74.93
X121.92Y-77.47
X121.92Y-80.01
X92.71Y-19.05
X92.71Y-26.67
T2
X80.01Y-17.78
X80.01Y-27.94
X87.63Y-17.78
X87.63Y-27.94
X57.15Y-17.78
X57.15Y-27.94
X64.77Y-17.78
X64.77Y-27.94
T3
X106.68Y-20.32
X111.68Y-20.32
X121.92Y-33.02
X121.92Y-35.56
X96.43Y-63.51
X96.43Y-68.59
X98.97Y-60.97
X98.97Y-63.51
X98.97Y-68.59
X98.97Y-71.13
X19.05Y-33.02
X19.05Y-35.56
T4
X127.0Y-46.99
X127.0Y-52.07
T5
X26.67Y-44.45
X29.205Y-44.453
X31.75Y-44.45
X34.29Y-44.45
X36.83Y-44.45
X39.37Y-44.45
X41.91Y-44.45
X44.45Y-44.45
X46.99Y-44.45
X49.53Y-44.45
X52.07Y-44.45
X54.61Y-44.45
X57.15Y-44.45
X59.69Y-44.45
X62.225Y-44.453
X64.77Y-44.45
T6
X41.91Y-17.78
X44.41Y-27.78
X46.91Y-17.78
X26.67Y-17.78
X29.17Y-27.78
X31.67Y-17.78
T0
M30
