G04 #@! TF.GenerationSoftware,KiCad,Pcbnew,(5.1.5)-2*
G04 #@! TF.CreationDate,2020-07-16T18:28:11-07:00*
G04 #@! TF.ProjectId,LCD_TEST_DEVICE,4c43445f-5445-4535-945f-444556494345,rev?*
G04 #@! TF.SameCoordinates,Original*
G04 #@! TF.FileFunction,Legend,Top*
G04 #@! TF.FilePolarity,Positive*
%FSLAX46Y46*%
G04 Gerber Fmt 4.6, Leading zero omitted, Abs format (unit mm)*
G04 Created by KiCad (PCBNEW (5.1.5)-2) date 2020-07-16 18:28:11*
%MOMM*%
%LPD*%
G04 APERTURE LIST*
%ADD10C,0.120000*%
%ADD11C,0.150000*%
G04 APERTURE END LIST*
D10*
X27745000Y-27900000D02*
X24150000Y-27900000D01*
X34191000Y-27900000D02*
X30595000Y-27900000D01*
X25245000Y-17660000D02*
X24150000Y-17660000D01*
X30244000Y-17660000D02*
X28095000Y-17660000D01*
X34191000Y-17660000D02*
X33096000Y-17660000D01*
X24150000Y-17660000D02*
X24150000Y-27900000D01*
X34191000Y-17660000D02*
X34191000Y-27900000D01*
X114300000Y-20320000D02*
G75*
G03X114300000Y-20320000I-5120000J0D01*
G01*
X109180000Y-15240000D02*
X109180000Y-25400000D01*
X109220000Y-15240000D02*
X109220000Y-25400000D01*
X109260000Y-15240000D02*
X109260000Y-25400000D01*
X109300000Y-15241000D02*
X109300000Y-25399000D01*
X109340000Y-15242000D02*
X109340000Y-25398000D01*
X109380000Y-15243000D02*
X109380000Y-25397000D01*
X109420000Y-15245000D02*
X109420000Y-25395000D01*
X109460000Y-15247000D02*
X109460000Y-25393000D01*
X109500000Y-15250000D02*
X109500000Y-25390000D01*
X109540000Y-15252000D02*
X109540000Y-25388000D01*
X109580000Y-15255000D02*
X109580000Y-25385000D01*
X109620000Y-15258000D02*
X109620000Y-25382000D01*
X109660000Y-15262000D02*
X109660000Y-25378000D01*
X109700000Y-15266000D02*
X109700000Y-25374000D01*
X109740000Y-15270000D02*
X109740000Y-25370000D01*
X109780000Y-15275000D02*
X109780000Y-25365000D01*
X109820000Y-15280000D02*
X109820000Y-25360000D01*
X109860000Y-15285000D02*
X109860000Y-25355000D01*
X109901000Y-15290000D02*
X109901000Y-25350000D01*
X109941000Y-15296000D02*
X109941000Y-25344000D01*
X109981000Y-15302000D02*
X109981000Y-25338000D01*
X110021000Y-15309000D02*
X110021000Y-25331000D01*
X110061000Y-15316000D02*
X110061000Y-25324000D01*
X110101000Y-15323000D02*
X110101000Y-25317000D01*
X110141000Y-15330000D02*
X110141000Y-25310000D01*
X110181000Y-15338000D02*
X110181000Y-25302000D01*
X110221000Y-15346000D02*
X110221000Y-25294000D01*
X110261000Y-15355000D02*
X110261000Y-25285000D01*
X110301000Y-15364000D02*
X110301000Y-25276000D01*
X110341000Y-15373000D02*
X110341000Y-25267000D01*
X110381000Y-15382000D02*
X110381000Y-25258000D01*
X110421000Y-15392000D02*
X110421000Y-25248000D01*
X110461000Y-15402000D02*
X110461000Y-19079000D01*
X110461000Y-21561000D02*
X110461000Y-25238000D01*
X110501000Y-15413000D02*
X110501000Y-19079000D01*
X110501000Y-21561000D02*
X110501000Y-25227000D01*
X110541000Y-15423000D02*
X110541000Y-19079000D01*
X110541000Y-21561000D02*
X110541000Y-25217000D01*
X110581000Y-15435000D02*
X110581000Y-19079000D01*
X110581000Y-21561000D02*
X110581000Y-25205000D01*
X110621000Y-15446000D02*
X110621000Y-19079000D01*
X110621000Y-21561000D02*
X110621000Y-25194000D01*
X110661000Y-15458000D02*
X110661000Y-19079000D01*
X110661000Y-21561000D02*
X110661000Y-25182000D01*
X110701000Y-15470000D02*
X110701000Y-19079000D01*
X110701000Y-21561000D02*
X110701000Y-25170000D01*
X110741000Y-15483000D02*
X110741000Y-19079000D01*
X110741000Y-21561000D02*
X110741000Y-25157000D01*
X110781000Y-15496000D02*
X110781000Y-19079000D01*
X110781000Y-21561000D02*
X110781000Y-25144000D01*
X110821000Y-15509000D02*
X110821000Y-19079000D01*
X110821000Y-21561000D02*
X110821000Y-25131000D01*
X110861000Y-15523000D02*
X110861000Y-19079000D01*
X110861000Y-21561000D02*
X110861000Y-25117000D01*
X110901000Y-15537000D02*
X110901000Y-19079000D01*
X110901000Y-21561000D02*
X110901000Y-25103000D01*
X110941000Y-15552000D02*
X110941000Y-19079000D01*
X110941000Y-21561000D02*
X110941000Y-25088000D01*
X110981000Y-15566000D02*
X110981000Y-19079000D01*
X110981000Y-21561000D02*
X110981000Y-25074000D01*
X111021000Y-15582000D02*
X111021000Y-19079000D01*
X111021000Y-21561000D02*
X111021000Y-25058000D01*
X111061000Y-15597000D02*
X111061000Y-19079000D01*
X111061000Y-21561000D02*
X111061000Y-25043000D01*
X111101000Y-15613000D02*
X111101000Y-19079000D01*
X111101000Y-21561000D02*
X111101000Y-25027000D01*
X111141000Y-15630000D02*
X111141000Y-19079000D01*
X111141000Y-21561000D02*
X111141000Y-25010000D01*
X111181000Y-15646000D02*
X111181000Y-19079000D01*
X111181000Y-21561000D02*
X111181000Y-24994000D01*
X111221000Y-15663000D02*
X111221000Y-19079000D01*
X111221000Y-21561000D02*
X111221000Y-24977000D01*
X111261000Y-15681000D02*
X111261000Y-19079000D01*
X111261000Y-21561000D02*
X111261000Y-24959000D01*
X111301000Y-15699000D02*
X111301000Y-19079000D01*
X111301000Y-21561000D02*
X111301000Y-24941000D01*
X111341000Y-15717000D02*
X111341000Y-19079000D01*
X111341000Y-21561000D02*
X111341000Y-24923000D01*
X111381000Y-15736000D02*
X111381000Y-19079000D01*
X111381000Y-21561000D02*
X111381000Y-24904000D01*
X111421000Y-15756000D02*
X111421000Y-19079000D01*
X111421000Y-21561000D02*
X111421000Y-24884000D01*
X111461000Y-15775000D02*
X111461000Y-19079000D01*
X111461000Y-21561000D02*
X111461000Y-24865000D01*
X111501000Y-15795000D02*
X111501000Y-19079000D01*
X111501000Y-21561000D02*
X111501000Y-24845000D01*
X111541000Y-15816000D02*
X111541000Y-19079000D01*
X111541000Y-21561000D02*
X111541000Y-24824000D01*
X111581000Y-15837000D02*
X111581000Y-19079000D01*
X111581000Y-21561000D02*
X111581000Y-24803000D01*
X111621000Y-15858000D02*
X111621000Y-19079000D01*
X111621000Y-21561000D02*
X111621000Y-24782000D01*
X111661000Y-15880000D02*
X111661000Y-19079000D01*
X111661000Y-21561000D02*
X111661000Y-24760000D01*
X111701000Y-15903000D02*
X111701000Y-19079000D01*
X111701000Y-21561000D02*
X111701000Y-24737000D01*
X111741000Y-15925000D02*
X111741000Y-19079000D01*
X111741000Y-21561000D02*
X111741000Y-24715000D01*
X111781000Y-15949000D02*
X111781000Y-19079000D01*
X111781000Y-21561000D02*
X111781000Y-24691000D01*
X111821000Y-15973000D02*
X111821000Y-19079000D01*
X111821000Y-21561000D02*
X111821000Y-24667000D01*
X111861000Y-15997000D02*
X111861000Y-19079000D01*
X111861000Y-21561000D02*
X111861000Y-24643000D01*
X111901000Y-16022000D02*
X111901000Y-19079000D01*
X111901000Y-21561000D02*
X111901000Y-24618000D01*
X111941000Y-16047000D02*
X111941000Y-19079000D01*
X111941000Y-21561000D02*
X111941000Y-24593000D01*
X111981000Y-16073000D02*
X111981000Y-19079000D01*
X111981000Y-21561000D02*
X111981000Y-24567000D01*
X112021000Y-16099000D02*
X112021000Y-19079000D01*
X112021000Y-21561000D02*
X112021000Y-24541000D01*
X112061000Y-16126000D02*
X112061000Y-19079000D01*
X112061000Y-21561000D02*
X112061000Y-24514000D01*
X112101000Y-16154000D02*
X112101000Y-19079000D01*
X112101000Y-21561000D02*
X112101000Y-24486000D01*
X112141000Y-16182000D02*
X112141000Y-19079000D01*
X112141000Y-21561000D02*
X112141000Y-24458000D01*
X112181000Y-16210000D02*
X112181000Y-19079000D01*
X112181000Y-21561000D02*
X112181000Y-24430000D01*
X112221000Y-16240000D02*
X112221000Y-19079000D01*
X112221000Y-21561000D02*
X112221000Y-24400000D01*
X112261000Y-16270000D02*
X112261000Y-19079000D01*
X112261000Y-21561000D02*
X112261000Y-24370000D01*
X112301000Y-16300000D02*
X112301000Y-19079000D01*
X112301000Y-21561000D02*
X112301000Y-24340000D01*
X112341000Y-16331000D02*
X112341000Y-19079000D01*
X112341000Y-21561000D02*
X112341000Y-24309000D01*
X112381000Y-16363000D02*
X112381000Y-19079000D01*
X112381000Y-21561000D02*
X112381000Y-24277000D01*
X112421000Y-16395000D02*
X112421000Y-19079000D01*
X112421000Y-21561000D02*
X112421000Y-24245000D01*
X112461000Y-16428000D02*
X112461000Y-19079000D01*
X112461000Y-21561000D02*
X112461000Y-24212000D01*
X112501000Y-16462000D02*
X112501000Y-19079000D01*
X112501000Y-21561000D02*
X112501000Y-24178000D01*
X112541000Y-16496000D02*
X112541000Y-19079000D01*
X112541000Y-21561000D02*
X112541000Y-24144000D01*
X112581000Y-16531000D02*
X112581000Y-19079000D01*
X112581000Y-21561000D02*
X112581000Y-24109000D01*
X112621000Y-16567000D02*
X112621000Y-19079000D01*
X112621000Y-21561000D02*
X112621000Y-24073000D01*
X112661000Y-16604000D02*
X112661000Y-19079000D01*
X112661000Y-21561000D02*
X112661000Y-24036000D01*
X112701000Y-16641000D02*
X112701000Y-19079000D01*
X112701000Y-21561000D02*
X112701000Y-23999000D01*
X112741000Y-16680000D02*
X112741000Y-19079000D01*
X112741000Y-21561000D02*
X112741000Y-23960000D01*
X112781000Y-16719000D02*
X112781000Y-19079000D01*
X112781000Y-21561000D02*
X112781000Y-23921000D01*
X112821000Y-16759000D02*
X112821000Y-19079000D01*
X112821000Y-21561000D02*
X112821000Y-23881000D01*
X112861000Y-16800000D02*
X112861000Y-19079000D01*
X112861000Y-21561000D02*
X112861000Y-23840000D01*
X112901000Y-16842000D02*
X112901000Y-19079000D01*
X112901000Y-21561000D02*
X112901000Y-23798000D01*
X112941000Y-16884000D02*
X112941000Y-23756000D01*
X112981000Y-16928000D02*
X112981000Y-23712000D01*
X113021000Y-16973000D02*
X113021000Y-23667000D01*
X113061000Y-17019000D02*
X113061000Y-23621000D01*
X113101000Y-17066000D02*
X113101000Y-23574000D01*
X113141000Y-17114000D02*
X113141000Y-23526000D01*
X113181000Y-17164000D02*
X113181000Y-23476000D01*
X113221000Y-17214000D02*
X113221000Y-23426000D01*
X113261000Y-17266000D02*
X113261000Y-23374000D01*
X113301000Y-17320000D02*
X113301000Y-23320000D01*
X113341000Y-17375000D02*
X113341000Y-23265000D01*
X113381000Y-17431000D02*
X113381000Y-23209000D01*
X113421000Y-17490000D02*
X113421000Y-23150000D01*
X113461000Y-17550000D02*
X113461000Y-23090000D01*
X113501000Y-17611000D02*
X113501000Y-23029000D01*
X113541000Y-17675000D02*
X113541000Y-22965000D01*
X113581000Y-17741000D02*
X113581000Y-22899000D01*
X113621000Y-17810000D02*
X113621000Y-22830000D01*
X113661000Y-17881000D02*
X113661000Y-22759000D01*
X113701000Y-17955000D02*
X113701000Y-22685000D01*
X113741000Y-18031000D02*
X113741000Y-22609000D01*
X113781000Y-18111000D02*
X113781000Y-22529000D01*
X113821000Y-18195000D02*
X113821000Y-22445000D01*
X113861000Y-18283000D02*
X113861000Y-22357000D01*
X113901000Y-18376000D02*
X113901000Y-22264000D01*
X113941000Y-18474000D02*
X113941000Y-22166000D01*
X113981000Y-18578000D02*
X113981000Y-22062000D01*
X114021000Y-18690000D02*
X114021000Y-21950000D01*
X114061000Y-18810000D02*
X114061000Y-21830000D01*
X114101000Y-18942000D02*
X114101000Y-21698000D01*
X114141000Y-19090000D02*
X114141000Y-21550000D01*
X114181000Y-19258000D02*
X114181000Y-21382000D01*
X114221000Y-19458000D02*
X114221000Y-21182000D01*
X114261000Y-19721000D02*
X114261000Y-20919000D01*
X103700354Y-17445000D02*
X104700354Y-17445000D01*
X104200354Y-16945000D02*
X104200354Y-17945000D01*
X93750000Y-19590000D02*
X94080000Y-19590000D01*
X94080000Y-19590000D02*
X94080000Y-26130000D01*
X94080000Y-26130000D02*
X93750000Y-26130000D01*
X91670000Y-19590000D02*
X91340000Y-19590000D01*
X91340000Y-19590000D02*
X91340000Y-26130000D01*
X91340000Y-26130000D02*
X91670000Y-26130000D01*
X70890000Y-19590000D02*
X71220000Y-19590000D01*
X71220000Y-19590000D02*
X71220000Y-26130000D01*
X71220000Y-26130000D02*
X70890000Y-26130000D01*
X68810000Y-19590000D02*
X68480000Y-19590000D01*
X68480000Y-19590000D02*
X68480000Y-26130000D01*
X68480000Y-26130000D02*
X68810000Y-26130000D01*
X88980000Y-17820000D02*
X88980000Y-27900000D01*
X81170000Y-28020000D02*
X86470000Y-28020000D01*
X86470000Y-17700000D02*
X83820000Y-17700000D01*
X78660000Y-16880000D02*
X78660000Y-27890000D01*
X66120000Y-17820000D02*
X66120000Y-27900000D01*
X58310000Y-28020000D02*
X63610000Y-28020000D01*
X63610000Y-17700000D02*
X60960000Y-17700000D01*
X55800000Y-16880000D02*
X55800000Y-27890000D01*
X49431000Y-17660000D02*
X49431000Y-27900000D01*
X39390000Y-17660000D02*
X39390000Y-27900000D01*
X49431000Y-17660000D02*
X48336000Y-17660000D01*
X45484000Y-17660000D02*
X43335000Y-17660000D01*
X40485000Y-17660000D02*
X39390000Y-17660000D01*
X49431000Y-27900000D02*
X45835000Y-27900000D01*
X42985000Y-27900000D02*
X39390000Y-27900000D01*
X99080000Y-81630000D02*
G75*
G02X98790000Y-83560000I-1110000J-820000D01*
G01*
X98790000Y-81340000D02*
G75*
G02X99080000Y-83270000I-820000J-1110000D01*
G01*
X17850000Y-83220000D02*
G75*
G02X18190000Y-81340000I1110000J770000D01*
G01*
X18180000Y-83570000D02*
G75*
G02X17850000Y-81660000I790000J1120000D01*
G01*
X100610000Y-83560000D02*
X98790000Y-83560000D01*
X100610000Y-86590000D02*
X100610000Y-83560000D01*
X100610000Y-81340000D02*
X98790000Y-81340000D01*
X18190000Y-83560000D02*
X16330000Y-83560000D01*
X16330000Y-83560000D02*
X16330000Y-86590000D01*
X16330000Y-81340000D02*
X18190000Y-81340000D01*
X16330000Y-86590000D02*
X100610000Y-86590000D01*
X100610000Y-81340000D02*
X100610000Y-42310000D01*
X100610000Y-42310000D02*
X16330000Y-42310000D01*
X16330000Y-42310000D02*
X16330000Y-81340000D01*
X61190000Y-41950000D02*
X58190000Y-41950000D01*
X25660000Y-59450000D02*
X25660000Y-73450000D01*
X90690000Y-58450000D02*
X26690000Y-58450000D01*
X91690000Y-73450000D02*
X91690000Y-59450000D01*
X26690000Y-74450000D02*
X90690000Y-74450000D01*
X91685400Y-73472940D02*
G75*
G02X90684640Y-74473700I-1000760J0D01*
G01*
X90694640Y-58454240D02*
G75*
G02X91692860Y-59452460I0J-998220D01*
G01*
X25656040Y-59442460D02*
G75*
G02X26654260Y-58444240I998220J0D01*
G01*
X26664260Y-74453700D02*
G75*
G02X25663500Y-73452940I0J1000760D01*
G01*
X22690000Y-78450000D02*
X93690000Y-78450000D01*
X93690000Y-78450000D02*
X93690000Y-53450000D01*
X93690000Y-53450000D02*
X22690000Y-53450000D01*
X22690000Y-53450000D02*
X22690000Y-78450000D01*
X128750635Y-46990000D02*
G75*
G03X128750635Y-46990000I-1750635J0D01*
G01*
X127000000Y-48740635D02*
X127000000Y-50670000D01*
X120590000Y-31690000D02*
X121920000Y-31690000D01*
X120590000Y-33020000D02*
X120590000Y-31690000D01*
X120590000Y-34290000D02*
X123250000Y-34290000D01*
X123250000Y-34290000D02*
X123250000Y-36890000D01*
X120590000Y-34290000D02*
X120590000Y-36890000D01*
X120590000Y-36890000D02*
X123250000Y-36890000D01*
X17720000Y-36890000D02*
X20380000Y-36890000D01*
X17720000Y-34290000D02*
X17720000Y-36890000D01*
X20380000Y-34290000D02*
X20380000Y-36890000D01*
X17720000Y-34290000D02*
X20380000Y-34290000D01*
X17720000Y-33020000D02*
X17720000Y-31690000D01*
X17720000Y-31690000D02*
X19050000Y-31690000D01*
X107950000Y-45720000D02*
X107950000Y-43180000D01*
X107950000Y-43180000D02*
X105280000Y-43180000D01*
X105280000Y-45720000D02*
X105280000Y-83950000D01*
X105280000Y-40510000D02*
X105280000Y-43180000D01*
X120650000Y-43180000D02*
X123320000Y-43180000D01*
X120650000Y-43180000D02*
X120650000Y-81280000D01*
X120650000Y-81280000D02*
X123320000Y-81280000D01*
X107950000Y-45720000D02*
X105280000Y-45720000D01*
X107950000Y-45720000D02*
X107950000Y-81280000D01*
X107950000Y-81280000D02*
X105280000Y-81280000D01*
X105280000Y-83950000D02*
X123320000Y-83950000D01*
X123320000Y-83950000D02*
X123320000Y-40510000D01*
X123320000Y-40510000D02*
X105280000Y-40510000D01*
D11*
X35772380Y-24422857D02*
X34772380Y-24422857D01*
X34772380Y-24041904D01*
X34820000Y-23946666D01*
X34867619Y-23899047D01*
X34962857Y-23851428D01*
X35105714Y-23851428D01*
X35200952Y-23899047D01*
X35248571Y-23946666D01*
X35296190Y-24041904D01*
X35296190Y-24422857D01*
X34772380Y-23232380D02*
X34772380Y-23041904D01*
X34820000Y-22946666D01*
X34915238Y-22851428D01*
X35105714Y-22803809D01*
X35439047Y-22803809D01*
X35629523Y-22851428D01*
X35724761Y-22946666D01*
X35772380Y-23041904D01*
X35772380Y-23232380D01*
X35724761Y-23327619D01*
X35629523Y-23422857D01*
X35439047Y-23470476D01*
X35105714Y-23470476D01*
X34915238Y-23422857D01*
X34820000Y-23327619D01*
X34772380Y-23232380D01*
X34772380Y-22518095D02*
X34772380Y-21946666D01*
X35772380Y-22232380D02*
X34772380Y-22232380D01*
X35772380Y-21089523D02*
X35772380Y-21660952D01*
X35772380Y-21375238D02*
X34772380Y-21375238D01*
X34915238Y-21470476D01*
X35010476Y-21565714D01*
X35058095Y-21660952D01*
X109013333Y-14427142D02*
X108965714Y-14474761D01*
X108822857Y-14522380D01*
X108727619Y-14522380D01*
X108584761Y-14474761D01*
X108489523Y-14379523D01*
X108441904Y-14284285D01*
X108394285Y-14093809D01*
X108394285Y-13950952D01*
X108441904Y-13760476D01*
X108489523Y-13665238D01*
X108584761Y-13570000D01*
X108727619Y-13522380D01*
X108822857Y-13522380D01*
X108965714Y-13570000D01*
X109013333Y-13617619D01*
X109965714Y-14522380D02*
X109394285Y-14522380D01*
X109680000Y-14522380D02*
X109680000Y-13522380D01*
X109584761Y-13665238D01*
X109489523Y-13760476D01*
X109394285Y-13808095D01*
X95532380Y-23026666D02*
X95056190Y-23360000D01*
X95532380Y-23598095D02*
X94532380Y-23598095D01*
X94532380Y-23217142D01*
X94580000Y-23121904D01*
X94627619Y-23074285D01*
X94722857Y-23026666D01*
X94865714Y-23026666D01*
X94960952Y-23074285D01*
X95008571Y-23121904D01*
X95056190Y-23217142D01*
X95056190Y-23598095D01*
X94627619Y-22645714D02*
X94580000Y-22598095D01*
X94532380Y-22502857D01*
X94532380Y-22264761D01*
X94580000Y-22169523D01*
X94627619Y-22121904D01*
X94722857Y-22074285D01*
X94818095Y-22074285D01*
X94960952Y-22121904D01*
X95532380Y-22693333D01*
X95532380Y-22074285D01*
X72672380Y-23026666D02*
X72196190Y-23360000D01*
X72672380Y-23598095D02*
X71672380Y-23598095D01*
X71672380Y-23217142D01*
X71720000Y-23121904D01*
X71767619Y-23074285D01*
X71862857Y-23026666D01*
X72005714Y-23026666D01*
X72100952Y-23074285D01*
X72148571Y-23121904D01*
X72196190Y-23217142D01*
X72196190Y-23598095D01*
X72672380Y-22074285D02*
X72672380Y-22645714D01*
X72672380Y-22360000D02*
X71672380Y-22360000D01*
X71815238Y-22455238D01*
X71910476Y-22550476D01*
X71958095Y-22645714D01*
X79246904Y-16382380D02*
X79246904Y-15382380D01*
X79627857Y-15382380D01*
X79723095Y-15430000D01*
X79770714Y-15477619D01*
X79818333Y-15572857D01*
X79818333Y-15715714D01*
X79770714Y-15810952D01*
X79723095Y-15858571D01*
X79627857Y-15906190D01*
X79246904Y-15906190D01*
X80580238Y-15858571D02*
X80723095Y-15906190D01*
X80770714Y-15953809D01*
X80818333Y-16049047D01*
X80818333Y-16191904D01*
X80770714Y-16287142D01*
X80723095Y-16334761D01*
X80627857Y-16382380D01*
X80246904Y-16382380D01*
X80246904Y-15382380D01*
X80580238Y-15382380D01*
X80675476Y-15430000D01*
X80723095Y-15477619D01*
X80770714Y-15572857D01*
X80770714Y-15668095D01*
X80723095Y-15763333D01*
X80675476Y-15810952D01*
X80580238Y-15858571D01*
X80246904Y-15858571D01*
X81199285Y-15477619D02*
X81246904Y-15430000D01*
X81342142Y-15382380D01*
X81580238Y-15382380D01*
X81675476Y-15430000D01*
X81723095Y-15477619D01*
X81770714Y-15572857D01*
X81770714Y-15668095D01*
X81723095Y-15810952D01*
X81151666Y-16382380D01*
X81770714Y-16382380D01*
X56386904Y-16382380D02*
X56386904Y-15382380D01*
X56767857Y-15382380D01*
X56863095Y-15430000D01*
X56910714Y-15477619D01*
X56958333Y-15572857D01*
X56958333Y-15715714D01*
X56910714Y-15810952D01*
X56863095Y-15858571D01*
X56767857Y-15906190D01*
X56386904Y-15906190D01*
X57720238Y-15858571D02*
X57863095Y-15906190D01*
X57910714Y-15953809D01*
X57958333Y-16049047D01*
X57958333Y-16191904D01*
X57910714Y-16287142D01*
X57863095Y-16334761D01*
X57767857Y-16382380D01*
X57386904Y-16382380D01*
X57386904Y-15382380D01*
X57720238Y-15382380D01*
X57815476Y-15430000D01*
X57863095Y-15477619D01*
X57910714Y-15572857D01*
X57910714Y-15668095D01*
X57863095Y-15763333D01*
X57815476Y-15810952D01*
X57720238Y-15858571D01*
X57386904Y-15858571D01*
X58910714Y-16382380D02*
X58339285Y-16382380D01*
X58625000Y-16382380D02*
X58625000Y-15382380D01*
X58529761Y-15525238D01*
X58434523Y-15620476D01*
X58339285Y-15668095D01*
X51012380Y-24422857D02*
X50012380Y-24422857D01*
X50012380Y-24041904D01*
X50060000Y-23946666D01*
X50107619Y-23899047D01*
X50202857Y-23851428D01*
X50345714Y-23851428D01*
X50440952Y-23899047D01*
X50488571Y-23946666D01*
X50536190Y-24041904D01*
X50536190Y-24422857D01*
X50012380Y-23232380D02*
X50012380Y-23041904D01*
X50060000Y-22946666D01*
X50155238Y-22851428D01*
X50345714Y-22803809D01*
X50679047Y-22803809D01*
X50869523Y-22851428D01*
X50964761Y-22946666D01*
X51012380Y-23041904D01*
X51012380Y-23232380D01*
X50964761Y-23327619D01*
X50869523Y-23422857D01*
X50679047Y-23470476D01*
X50345714Y-23470476D01*
X50155238Y-23422857D01*
X50060000Y-23327619D01*
X50012380Y-23232380D01*
X50012380Y-22518095D02*
X50012380Y-21946666D01*
X51012380Y-22232380D02*
X50012380Y-22232380D01*
X50107619Y-21660952D02*
X50060000Y-21613333D01*
X50012380Y-21518095D01*
X50012380Y-21280000D01*
X50060000Y-21184761D01*
X50107619Y-21137142D01*
X50202857Y-21089523D01*
X50298095Y-21089523D01*
X50440952Y-21137142D01*
X51012380Y-21708571D01*
X51012380Y-21089523D01*
X20398095Y-40492380D02*
X20398095Y-41301904D01*
X20445714Y-41397142D01*
X20493333Y-41444761D01*
X20588571Y-41492380D01*
X20779047Y-41492380D01*
X20874285Y-41444761D01*
X20921904Y-41397142D01*
X20969523Y-41301904D01*
X20969523Y-40492380D01*
X21969523Y-41492380D02*
X21398095Y-41492380D01*
X21683809Y-41492380D02*
X21683809Y-40492380D01*
X21588571Y-40635238D01*
X21493333Y-40730476D01*
X21398095Y-40778095D01*
X124701745Y-50268095D02*
X123701745Y-50268095D01*
X123701745Y-50030000D01*
X123749365Y-49887142D01*
X123844603Y-49791904D01*
X123939841Y-49744285D01*
X124130317Y-49696666D01*
X124273174Y-49696666D01*
X124463650Y-49744285D01*
X124558888Y-49791904D01*
X124654126Y-49887142D01*
X124701745Y-50030000D01*
X124701745Y-50268095D01*
X124701745Y-48744285D02*
X124701745Y-49315714D01*
X124701745Y-49030000D02*
X123701745Y-49030000D01*
X123844603Y-49125238D01*
X123939841Y-49220476D01*
X123987460Y-49315714D01*
X128552380Y-50531904D02*
X127552380Y-50531904D01*
X128552380Y-49960476D02*
X127980952Y-50389047D01*
X127552380Y-49960476D02*
X128123809Y-50531904D01*
X119205714Y-30190000D02*
X119110476Y-30142380D01*
X118967619Y-30142380D01*
X118824761Y-30190000D01*
X118729523Y-30285238D01*
X118681904Y-30380476D01*
X118634285Y-30570952D01*
X118634285Y-30713809D01*
X118681904Y-30904285D01*
X118729523Y-30999523D01*
X118824761Y-31094761D01*
X118967619Y-31142380D01*
X119062857Y-31142380D01*
X119205714Y-31094761D01*
X119253333Y-31047142D01*
X119253333Y-30713809D01*
X119062857Y-30713809D01*
X119681904Y-31142380D02*
X119681904Y-30142380D01*
X120253333Y-31142380D01*
X120253333Y-30142380D01*
X120729523Y-31142380D02*
X120729523Y-30142380D01*
X120967619Y-30142380D01*
X121110476Y-30190000D01*
X121205714Y-30285238D01*
X121253333Y-30380476D01*
X121300952Y-30570952D01*
X121300952Y-30713809D01*
X121253333Y-30904285D01*
X121205714Y-30999523D01*
X121110476Y-31094761D01*
X120967619Y-31142380D01*
X120729523Y-31142380D01*
X121491428Y-31237619D02*
X122253333Y-31237619D01*
X122491428Y-31142380D02*
X122491428Y-30142380D01*
X122872380Y-30142380D01*
X122967619Y-30190000D01*
X123015238Y-30237619D01*
X123062857Y-30332857D01*
X123062857Y-30475714D01*
X123015238Y-30570952D01*
X122967619Y-30618571D01*
X122872380Y-30666190D01*
X122491428Y-30666190D01*
X123396190Y-30142380D02*
X123634285Y-31142380D01*
X123824761Y-30428095D01*
X124015238Y-31142380D01*
X124253333Y-30142380D01*
X125205714Y-31142380D02*
X124872380Y-30666190D01*
X124634285Y-31142380D02*
X124634285Y-30142380D01*
X125015238Y-30142380D01*
X125110476Y-30190000D01*
X125158095Y-30237619D01*
X125205714Y-30332857D01*
X125205714Y-30475714D01*
X125158095Y-30570952D01*
X125110476Y-30618571D01*
X125015238Y-30666190D01*
X124634285Y-30666190D01*
X16907142Y-30142380D02*
X16430952Y-30142380D01*
X16383333Y-30618571D01*
X16430952Y-30570952D01*
X16526190Y-30523333D01*
X16764285Y-30523333D01*
X16859523Y-30570952D01*
X16907142Y-30618571D01*
X16954761Y-30713809D01*
X16954761Y-30951904D01*
X16907142Y-31047142D01*
X16859523Y-31094761D01*
X16764285Y-31142380D01*
X16526190Y-31142380D01*
X16430952Y-31094761D01*
X16383333Y-31047142D01*
X17240476Y-30142380D02*
X17573809Y-31142380D01*
X17907142Y-30142380D01*
X18002380Y-31237619D02*
X18764285Y-31237619D01*
X19002380Y-31142380D02*
X19002380Y-30142380D01*
X19383333Y-30142380D01*
X19478571Y-30190000D01*
X19526190Y-30237619D01*
X19573809Y-30332857D01*
X19573809Y-30475714D01*
X19526190Y-30570952D01*
X19478571Y-30618571D01*
X19383333Y-30666190D01*
X19002380Y-30666190D01*
X19907142Y-30142380D02*
X20145238Y-31142380D01*
X20335714Y-30428095D01*
X20526190Y-31142380D01*
X20764285Y-30142380D01*
X21716666Y-31142380D02*
X21383333Y-30666190D01*
X21145238Y-31142380D02*
X21145238Y-30142380D01*
X21526190Y-30142380D01*
X21621428Y-30190000D01*
X21669047Y-30237619D01*
X21716666Y-30332857D01*
X21716666Y-30475714D01*
X21669047Y-30570952D01*
X21621428Y-30618571D01*
X21526190Y-30666190D01*
X21145238Y-30666190D01*
X113585714Y-39536666D02*
X114061904Y-39536666D01*
X113490476Y-39822380D02*
X113823809Y-38822380D01*
X114157142Y-39822380D01*
X115014285Y-39822380D02*
X114442857Y-39822380D01*
X114728571Y-39822380D02*
X114728571Y-38822380D01*
X114633333Y-38965238D01*
X114538095Y-39060476D01*
X114442857Y-39108095D01*
M02*
