G04 #@! TF.GenerationSoftware,KiCad,Pcbnew,(5.1.5)-2*
G04 #@! TF.CreationDate,2020-07-16T18:28:11-07:00*
G04 #@! TF.ProjectId,LCD_TEST_DEVICE,4c43445f-5445-4535-945f-444556494345,rev?*
G04 #@! TF.SameCoordinates,Original*
G04 #@! TF.FileFunction,Copper,L2,Bot*
G04 #@! TF.FilePolarity,Positive*
%FSLAX46Y46*%
G04 Gerber Fmt 4.6, Leading zero omitted, Abs format (unit mm)*
G04 Created by KiCad (PCBNEW (5.1.5)-2) date 2020-07-16 18:28:11*
%MOMM*%
%LPD*%
G04 APERTURE LIST*
%ADD10C,2.340000*%
%ADD11R,2.000000X2.000000*%
%ADD12C,2.000000*%
%ADD13C,1.600000*%
%ADD14O,1.600000X1.600000*%
%ADD15C,1.800000*%
%ADD16R,1.800000X1.800000*%
%ADD17R,1.800000X2.600000*%
%ADD18O,1.800000X2.600000*%
%ADD19R,2.200000X2.200000*%
%ADD20O,2.200000X2.200000*%
%ADD21O,1.700000X1.700000*%
%ADD22R,1.700000X1.700000*%
%ADD23R,1.600000X1.600000*%
%ADD24C,0.250000*%
G04 APERTURE END LIST*
D10*
X26670000Y-17780000D03*
X29170000Y-27780000D03*
X31670000Y-17780000D03*
D11*
X106680000Y-20320000D03*
D12*
X111680000Y-20320000D03*
D13*
X92710000Y-19050000D03*
D14*
X92710000Y-26670000D03*
D13*
X69850000Y-19050000D03*
D14*
X69850000Y-26670000D03*
D15*
X87630000Y-17780000D03*
X87630000Y-27940000D03*
D16*
X80010000Y-17780000D03*
D15*
X80010000Y-27940000D03*
X64770000Y-17780000D03*
X64770000Y-27940000D03*
D16*
X57150000Y-17780000D03*
D15*
X57150000Y-27940000D03*
D10*
X46910000Y-17780000D03*
X44410000Y-27780000D03*
X41910000Y-17780000D03*
D17*
X59690000Y-44450000D03*
D18*
X57150000Y-44450000D03*
X54610000Y-44450000D03*
X52070000Y-44450000D03*
X49530000Y-44450000D03*
X46990000Y-44450000D03*
X44450000Y-44450000D03*
X41910000Y-44450000D03*
X39370000Y-44450000D03*
X36830000Y-44450000D03*
X34290000Y-44450000D03*
X31750000Y-44450000D03*
X29204920Y-44452540D03*
X26670000Y-44450000D03*
X64770000Y-44450000D03*
X62224920Y-44452540D03*
D11*
X98970000Y-71130000D03*
X98970000Y-68590000D03*
X96430000Y-68590000D03*
X96430000Y-63510000D03*
X98970000Y-63510000D03*
X98970000Y-60970000D03*
D19*
X127000000Y-52070000D03*
D20*
X127000000Y-46990000D03*
D21*
X121920000Y-35560000D03*
D22*
X121920000Y-33020000D03*
X19050000Y-33020000D03*
D21*
X19050000Y-35560000D03*
D23*
X106680000Y-44450000D03*
D14*
X121920000Y-77470000D03*
X106680000Y-46990000D03*
X121920000Y-74930000D03*
X106680000Y-49530000D03*
X121920000Y-72390000D03*
X106680000Y-52070000D03*
X121920000Y-69850000D03*
X106680000Y-54610000D03*
X121920000Y-67310000D03*
X106680000Y-57150000D03*
X121920000Y-64770000D03*
X106680000Y-59690000D03*
X121920000Y-62230000D03*
X106680000Y-62230000D03*
X121920000Y-59690000D03*
X106680000Y-64770000D03*
X121920000Y-57150000D03*
X106680000Y-67310000D03*
X121920000Y-54610000D03*
X106680000Y-69850000D03*
X121920000Y-52070000D03*
X106680000Y-72390000D03*
X121920000Y-49530000D03*
X106680000Y-74930000D03*
X121920000Y-46990000D03*
X106680000Y-77470000D03*
X121920000Y-44450000D03*
X106680000Y-80010000D03*
X121920000Y-80010000D03*
D24*
X107479999Y-56350001D02*
X106680000Y-57150000D01*
X107805001Y-43430003D02*
X107805001Y-56024999D01*
X91584999Y-27210001D02*
X107805001Y-43430003D01*
X91584999Y-20175001D02*
X91584999Y-27210001D01*
X92710000Y-19050000D02*
X91584999Y-20175001D01*
X107805001Y-56024999D02*
X107479999Y-56350001D01*
X105548630Y-54610000D02*
X106680000Y-54610000D01*
X68724999Y-21036001D02*
X102298998Y-54610000D01*
X68724999Y-20175001D02*
X68724999Y-21036001D01*
X69850000Y-19050000D02*
X68724999Y-20175001D01*
X102298998Y-54610000D02*
X105548630Y-54610000D01*
M02*
