G04 #@! TF.GenerationSoftware,KiCad,Pcbnew,(5.1.5)-2*
G04 #@! TF.CreationDate,2020-07-16T18:28:11-07:00*
G04 #@! TF.ProjectId,LCD_TEST_DEVICE,4c43445f-5445-4535-945f-444556494345,rev?*
G04 #@! TF.SameCoordinates,Original*
G04 #@! TF.FileFunction,Soldermask,Top*
G04 #@! TF.FilePolarity,Negative*
%FSLAX46Y46*%
G04 Gerber Fmt 4.6, Leading zero omitted, Abs format (unit mm)*
G04 Created by KiCad (PCBNEW (5.1.5)-2) date 2020-07-16 18:28:11*
%MOMM*%
%LPD*%
G04 APERTURE LIST*
%ADD10C,0.100000*%
G04 APERTURE END LIST*
D10*
G36*
X98349487Y-81198996D02*
G01*
X98586253Y-81297068D01*
X98586255Y-81297069D01*
X98799339Y-81439447D01*
X98980553Y-81620661D01*
X99122932Y-81833747D01*
X99221004Y-82070513D01*
X99271000Y-82321861D01*
X99271000Y-82578139D01*
X99221004Y-82829487D01*
X99122932Y-83066253D01*
X99122931Y-83066255D01*
X98980553Y-83279339D01*
X98799339Y-83460553D01*
X98586255Y-83602931D01*
X98586254Y-83602932D01*
X98586253Y-83602932D01*
X98349487Y-83701004D01*
X98098139Y-83751000D01*
X97841861Y-83751000D01*
X97590513Y-83701004D01*
X97353747Y-83602932D01*
X97353746Y-83602932D01*
X97353745Y-83602931D01*
X97140661Y-83460553D01*
X96959447Y-83279339D01*
X96817069Y-83066255D01*
X96817068Y-83066253D01*
X96718996Y-82829487D01*
X96669000Y-82578139D01*
X96669000Y-82321861D01*
X96718996Y-82070513D01*
X96817068Y-81833747D01*
X96959447Y-81620661D01*
X97140661Y-81439447D01*
X97353745Y-81297069D01*
X97353747Y-81297068D01*
X97590513Y-81198996D01*
X97841861Y-81149000D01*
X98098139Y-81149000D01*
X98349487Y-81198996D01*
G37*
G36*
X19349487Y-81198996D02*
G01*
X19586253Y-81297068D01*
X19586255Y-81297069D01*
X19799339Y-81439447D01*
X19980553Y-81620661D01*
X20122932Y-81833747D01*
X20221004Y-82070513D01*
X20271000Y-82321861D01*
X20271000Y-82578139D01*
X20221004Y-82829487D01*
X20122932Y-83066253D01*
X20122931Y-83066255D01*
X19980553Y-83279339D01*
X19799339Y-83460553D01*
X19586255Y-83602931D01*
X19586254Y-83602932D01*
X19586253Y-83602932D01*
X19349487Y-83701004D01*
X19098139Y-83751000D01*
X18841861Y-83751000D01*
X18590513Y-83701004D01*
X18353747Y-83602932D01*
X18353746Y-83602932D01*
X18353745Y-83602931D01*
X18140661Y-83460553D01*
X17959447Y-83279339D01*
X17817069Y-83066255D01*
X17817068Y-83066253D01*
X17718996Y-82829487D01*
X17669000Y-82578139D01*
X17669000Y-82321861D01*
X17718996Y-82070513D01*
X17817068Y-81833747D01*
X17959447Y-81620661D01*
X18140661Y-81439447D01*
X18353745Y-81297069D01*
X18353747Y-81297068D01*
X18590513Y-81198996D01*
X18841861Y-81149000D01*
X19098139Y-81149000D01*
X19349487Y-81198996D01*
G37*
G36*
X106928228Y-79191703D02*
G01*
X107083100Y-79255853D01*
X107222481Y-79348985D01*
X107341015Y-79467519D01*
X107434147Y-79606900D01*
X107498297Y-79761772D01*
X107531000Y-79926184D01*
X107531000Y-80093816D01*
X107498297Y-80258228D01*
X107434147Y-80413100D01*
X107341015Y-80552481D01*
X107222481Y-80671015D01*
X107083100Y-80764147D01*
X106928228Y-80828297D01*
X106763816Y-80861000D01*
X106596184Y-80861000D01*
X106431772Y-80828297D01*
X106276900Y-80764147D01*
X106137519Y-80671015D01*
X106018985Y-80552481D01*
X105925853Y-80413100D01*
X105861703Y-80258228D01*
X105829000Y-80093816D01*
X105829000Y-79926184D01*
X105861703Y-79761772D01*
X105925853Y-79606900D01*
X106018985Y-79467519D01*
X106137519Y-79348985D01*
X106276900Y-79255853D01*
X106431772Y-79191703D01*
X106596184Y-79159000D01*
X106763816Y-79159000D01*
X106928228Y-79191703D01*
G37*
G36*
X122168228Y-79191703D02*
G01*
X122323100Y-79255853D01*
X122462481Y-79348985D01*
X122581015Y-79467519D01*
X122674147Y-79606900D01*
X122738297Y-79761772D01*
X122771000Y-79926184D01*
X122771000Y-80093816D01*
X122738297Y-80258228D01*
X122674147Y-80413100D01*
X122581015Y-80552481D01*
X122462481Y-80671015D01*
X122323100Y-80764147D01*
X122168228Y-80828297D01*
X122003816Y-80861000D01*
X121836184Y-80861000D01*
X121671772Y-80828297D01*
X121516900Y-80764147D01*
X121377519Y-80671015D01*
X121258985Y-80552481D01*
X121165853Y-80413100D01*
X121101703Y-80258228D01*
X121069000Y-80093816D01*
X121069000Y-79926184D01*
X121101703Y-79761772D01*
X121165853Y-79606900D01*
X121258985Y-79467519D01*
X121377519Y-79348985D01*
X121516900Y-79255853D01*
X121671772Y-79191703D01*
X121836184Y-79159000D01*
X122003816Y-79159000D01*
X122168228Y-79191703D01*
G37*
G36*
X106928228Y-76651703D02*
G01*
X107083100Y-76715853D01*
X107222481Y-76808985D01*
X107341015Y-76927519D01*
X107434147Y-77066900D01*
X107498297Y-77221772D01*
X107531000Y-77386184D01*
X107531000Y-77553816D01*
X107498297Y-77718228D01*
X107434147Y-77873100D01*
X107341015Y-78012481D01*
X107222481Y-78131015D01*
X107083100Y-78224147D01*
X106928228Y-78288297D01*
X106763816Y-78321000D01*
X106596184Y-78321000D01*
X106431772Y-78288297D01*
X106276900Y-78224147D01*
X106137519Y-78131015D01*
X106018985Y-78012481D01*
X105925853Y-77873100D01*
X105861703Y-77718228D01*
X105829000Y-77553816D01*
X105829000Y-77386184D01*
X105861703Y-77221772D01*
X105925853Y-77066900D01*
X106018985Y-76927519D01*
X106137519Y-76808985D01*
X106276900Y-76715853D01*
X106431772Y-76651703D01*
X106596184Y-76619000D01*
X106763816Y-76619000D01*
X106928228Y-76651703D01*
G37*
G36*
X122168228Y-76651703D02*
G01*
X122323100Y-76715853D01*
X122462481Y-76808985D01*
X122581015Y-76927519D01*
X122674147Y-77066900D01*
X122738297Y-77221772D01*
X122771000Y-77386184D01*
X122771000Y-77553816D01*
X122738297Y-77718228D01*
X122674147Y-77873100D01*
X122581015Y-78012481D01*
X122462481Y-78131015D01*
X122323100Y-78224147D01*
X122168228Y-78288297D01*
X122003816Y-78321000D01*
X121836184Y-78321000D01*
X121671772Y-78288297D01*
X121516900Y-78224147D01*
X121377519Y-78131015D01*
X121258985Y-78012481D01*
X121165853Y-77873100D01*
X121101703Y-77718228D01*
X121069000Y-77553816D01*
X121069000Y-77386184D01*
X121101703Y-77221772D01*
X121165853Y-77066900D01*
X121258985Y-76927519D01*
X121377519Y-76808985D01*
X121516900Y-76715853D01*
X121671772Y-76651703D01*
X121836184Y-76619000D01*
X122003816Y-76619000D01*
X122168228Y-76651703D01*
G37*
G36*
X106928228Y-74111703D02*
G01*
X107083100Y-74175853D01*
X107222481Y-74268985D01*
X107341015Y-74387519D01*
X107434147Y-74526900D01*
X107498297Y-74681772D01*
X107531000Y-74846184D01*
X107531000Y-75013816D01*
X107498297Y-75178228D01*
X107434147Y-75333100D01*
X107341015Y-75472481D01*
X107222481Y-75591015D01*
X107083100Y-75684147D01*
X106928228Y-75748297D01*
X106763816Y-75781000D01*
X106596184Y-75781000D01*
X106431772Y-75748297D01*
X106276900Y-75684147D01*
X106137519Y-75591015D01*
X106018985Y-75472481D01*
X105925853Y-75333100D01*
X105861703Y-75178228D01*
X105829000Y-75013816D01*
X105829000Y-74846184D01*
X105861703Y-74681772D01*
X105925853Y-74526900D01*
X106018985Y-74387519D01*
X106137519Y-74268985D01*
X106276900Y-74175853D01*
X106431772Y-74111703D01*
X106596184Y-74079000D01*
X106763816Y-74079000D01*
X106928228Y-74111703D01*
G37*
G36*
X122168228Y-74111703D02*
G01*
X122323100Y-74175853D01*
X122462481Y-74268985D01*
X122581015Y-74387519D01*
X122674147Y-74526900D01*
X122738297Y-74681772D01*
X122771000Y-74846184D01*
X122771000Y-75013816D01*
X122738297Y-75178228D01*
X122674147Y-75333100D01*
X122581015Y-75472481D01*
X122462481Y-75591015D01*
X122323100Y-75684147D01*
X122168228Y-75748297D01*
X122003816Y-75781000D01*
X121836184Y-75781000D01*
X121671772Y-75748297D01*
X121516900Y-75684147D01*
X121377519Y-75591015D01*
X121258985Y-75472481D01*
X121165853Y-75333100D01*
X121101703Y-75178228D01*
X121069000Y-75013816D01*
X121069000Y-74846184D01*
X121101703Y-74681772D01*
X121165853Y-74526900D01*
X121258985Y-74387519D01*
X121377519Y-74268985D01*
X121516900Y-74175853D01*
X121671772Y-74111703D01*
X121836184Y-74079000D01*
X122003816Y-74079000D01*
X122168228Y-74111703D01*
G37*
G36*
X122168228Y-71571703D02*
G01*
X122323100Y-71635853D01*
X122462481Y-71728985D01*
X122581015Y-71847519D01*
X122674147Y-71986900D01*
X122738297Y-72141772D01*
X122771000Y-72306184D01*
X122771000Y-72473816D01*
X122738297Y-72638228D01*
X122674147Y-72793100D01*
X122581015Y-72932481D01*
X122462481Y-73051015D01*
X122323100Y-73144147D01*
X122168228Y-73208297D01*
X122003816Y-73241000D01*
X121836184Y-73241000D01*
X121671772Y-73208297D01*
X121516900Y-73144147D01*
X121377519Y-73051015D01*
X121258985Y-72932481D01*
X121165853Y-72793100D01*
X121101703Y-72638228D01*
X121069000Y-72473816D01*
X121069000Y-72306184D01*
X121101703Y-72141772D01*
X121165853Y-71986900D01*
X121258985Y-71847519D01*
X121377519Y-71728985D01*
X121516900Y-71635853D01*
X121671772Y-71571703D01*
X121836184Y-71539000D01*
X122003816Y-71539000D01*
X122168228Y-71571703D01*
G37*
G36*
X106928228Y-71571703D02*
G01*
X107083100Y-71635853D01*
X107222481Y-71728985D01*
X107341015Y-71847519D01*
X107434147Y-71986900D01*
X107498297Y-72141772D01*
X107531000Y-72306184D01*
X107531000Y-72473816D01*
X107498297Y-72638228D01*
X107434147Y-72793100D01*
X107341015Y-72932481D01*
X107222481Y-73051015D01*
X107083100Y-73144147D01*
X106928228Y-73208297D01*
X106763816Y-73241000D01*
X106596184Y-73241000D01*
X106431772Y-73208297D01*
X106276900Y-73144147D01*
X106137519Y-73051015D01*
X106018985Y-72932481D01*
X105925853Y-72793100D01*
X105861703Y-72638228D01*
X105829000Y-72473816D01*
X105829000Y-72306184D01*
X105861703Y-72141772D01*
X105925853Y-71986900D01*
X106018985Y-71847519D01*
X106137519Y-71728985D01*
X106276900Y-71635853D01*
X106431772Y-71571703D01*
X106596184Y-71539000D01*
X106763816Y-71539000D01*
X106928228Y-71571703D01*
G37*
G36*
X100021000Y-72181000D02*
G01*
X97919000Y-72181000D01*
X97919000Y-70079000D01*
X100021000Y-70079000D01*
X100021000Y-72181000D01*
G37*
G36*
X122168228Y-69031703D02*
G01*
X122323100Y-69095853D01*
X122462481Y-69188985D01*
X122581015Y-69307519D01*
X122674147Y-69446900D01*
X122738297Y-69601772D01*
X122771000Y-69766184D01*
X122771000Y-69933816D01*
X122738297Y-70098228D01*
X122674147Y-70253100D01*
X122581015Y-70392481D01*
X122462481Y-70511015D01*
X122323100Y-70604147D01*
X122168228Y-70668297D01*
X122003816Y-70701000D01*
X121836184Y-70701000D01*
X121671772Y-70668297D01*
X121516900Y-70604147D01*
X121377519Y-70511015D01*
X121258985Y-70392481D01*
X121165853Y-70253100D01*
X121101703Y-70098228D01*
X121069000Y-69933816D01*
X121069000Y-69766184D01*
X121101703Y-69601772D01*
X121165853Y-69446900D01*
X121258985Y-69307519D01*
X121377519Y-69188985D01*
X121516900Y-69095853D01*
X121671772Y-69031703D01*
X121836184Y-68999000D01*
X122003816Y-68999000D01*
X122168228Y-69031703D01*
G37*
G36*
X106928228Y-69031703D02*
G01*
X107083100Y-69095853D01*
X107222481Y-69188985D01*
X107341015Y-69307519D01*
X107434147Y-69446900D01*
X107498297Y-69601772D01*
X107531000Y-69766184D01*
X107531000Y-69933816D01*
X107498297Y-70098228D01*
X107434147Y-70253100D01*
X107341015Y-70392481D01*
X107222481Y-70511015D01*
X107083100Y-70604147D01*
X106928228Y-70668297D01*
X106763816Y-70701000D01*
X106596184Y-70701000D01*
X106431772Y-70668297D01*
X106276900Y-70604147D01*
X106137519Y-70511015D01*
X106018985Y-70392481D01*
X105925853Y-70253100D01*
X105861703Y-70098228D01*
X105829000Y-69933816D01*
X105829000Y-69766184D01*
X105861703Y-69601772D01*
X105925853Y-69446900D01*
X106018985Y-69307519D01*
X106137519Y-69188985D01*
X106276900Y-69095853D01*
X106431772Y-69031703D01*
X106596184Y-68999000D01*
X106763816Y-68999000D01*
X106928228Y-69031703D01*
G37*
G36*
X97481000Y-69641000D02*
G01*
X95379000Y-69641000D01*
X95379000Y-67539000D01*
X97481000Y-67539000D01*
X97481000Y-69641000D01*
G37*
G36*
X100021000Y-69641000D02*
G01*
X97919000Y-69641000D01*
X97919000Y-67539000D01*
X100021000Y-67539000D01*
X100021000Y-69641000D01*
G37*
G36*
X106928228Y-66491703D02*
G01*
X107083100Y-66555853D01*
X107222481Y-66648985D01*
X107341015Y-66767519D01*
X107434147Y-66906900D01*
X107498297Y-67061772D01*
X107531000Y-67226184D01*
X107531000Y-67393816D01*
X107498297Y-67558228D01*
X107434147Y-67713100D01*
X107341015Y-67852481D01*
X107222481Y-67971015D01*
X107083100Y-68064147D01*
X106928228Y-68128297D01*
X106763816Y-68161000D01*
X106596184Y-68161000D01*
X106431772Y-68128297D01*
X106276900Y-68064147D01*
X106137519Y-67971015D01*
X106018985Y-67852481D01*
X105925853Y-67713100D01*
X105861703Y-67558228D01*
X105829000Y-67393816D01*
X105829000Y-67226184D01*
X105861703Y-67061772D01*
X105925853Y-66906900D01*
X106018985Y-66767519D01*
X106137519Y-66648985D01*
X106276900Y-66555853D01*
X106431772Y-66491703D01*
X106596184Y-66459000D01*
X106763816Y-66459000D01*
X106928228Y-66491703D01*
G37*
G36*
X122168228Y-66491703D02*
G01*
X122323100Y-66555853D01*
X122462481Y-66648985D01*
X122581015Y-66767519D01*
X122674147Y-66906900D01*
X122738297Y-67061772D01*
X122771000Y-67226184D01*
X122771000Y-67393816D01*
X122738297Y-67558228D01*
X122674147Y-67713100D01*
X122581015Y-67852481D01*
X122462481Y-67971015D01*
X122323100Y-68064147D01*
X122168228Y-68128297D01*
X122003816Y-68161000D01*
X121836184Y-68161000D01*
X121671772Y-68128297D01*
X121516900Y-68064147D01*
X121377519Y-67971015D01*
X121258985Y-67852481D01*
X121165853Y-67713100D01*
X121101703Y-67558228D01*
X121069000Y-67393816D01*
X121069000Y-67226184D01*
X121101703Y-67061772D01*
X121165853Y-66906900D01*
X121258985Y-66767519D01*
X121377519Y-66648985D01*
X121516900Y-66555853D01*
X121671772Y-66491703D01*
X121836184Y-66459000D01*
X122003816Y-66459000D01*
X122168228Y-66491703D01*
G37*
G36*
X122168228Y-63951703D02*
G01*
X122323100Y-64015853D01*
X122462481Y-64108985D01*
X122581015Y-64227519D01*
X122674147Y-64366900D01*
X122738297Y-64521772D01*
X122771000Y-64686184D01*
X122771000Y-64853816D01*
X122738297Y-65018228D01*
X122674147Y-65173100D01*
X122581015Y-65312481D01*
X122462481Y-65431015D01*
X122323100Y-65524147D01*
X122168228Y-65588297D01*
X122003816Y-65621000D01*
X121836184Y-65621000D01*
X121671772Y-65588297D01*
X121516900Y-65524147D01*
X121377519Y-65431015D01*
X121258985Y-65312481D01*
X121165853Y-65173100D01*
X121101703Y-65018228D01*
X121069000Y-64853816D01*
X121069000Y-64686184D01*
X121101703Y-64521772D01*
X121165853Y-64366900D01*
X121258985Y-64227519D01*
X121377519Y-64108985D01*
X121516900Y-64015853D01*
X121671772Y-63951703D01*
X121836184Y-63919000D01*
X122003816Y-63919000D01*
X122168228Y-63951703D01*
G37*
G36*
X106928228Y-63951703D02*
G01*
X107083100Y-64015853D01*
X107222481Y-64108985D01*
X107341015Y-64227519D01*
X107434147Y-64366900D01*
X107498297Y-64521772D01*
X107531000Y-64686184D01*
X107531000Y-64853816D01*
X107498297Y-65018228D01*
X107434147Y-65173100D01*
X107341015Y-65312481D01*
X107222481Y-65431015D01*
X107083100Y-65524147D01*
X106928228Y-65588297D01*
X106763816Y-65621000D01*
X106596184Y-65621000D01*
X106431772Y-65588297D01*
X106276900Y-65524147D01*
X106137519Y-65431015D01*
X106018985Y-65312481D01*
X105925853Y-65173100D01*
X105861703Y-65018228D01*
X105829000Y-64853816D01*
X105829000Y-64686184D01*
X105861703Y-64521772D01*
X105925853Y-64366900D01*
X106018985Y-64227519D01*
X106137519Y-64108985D01*
X106276900Y-64015853D01*
X106431772Y-63951703D01*
X106596184Y-63919000D01*
X106763816Y-63919000D01*
X106928228Y-63951703D01*
G37*
G36*
X100021000Y-64561000D02*
G01*
X97919000Y-64561000D01*
X97919000Y-62459000D01*
X100021000Y-62459000D01*
X100021000Y-64561000D01*
G37*
G36*
X97481000Y-64561000D02*
G01*
X95379000Y-64561000D01*
X95379000Y-62459000D01*
X97481000Y-62459000D01*
X97481000Y-64561000D01*
G37*
G36*
X122168228Y-61411703D02*
G01*
X122323100Y-61475853D01*
X122462481Y-61568985D01*
X122581015Y-61687519D01*
X122674147Y-61826900D01*
X122738297Y-61981772D01*
X122771000Y-62146184D01*
X122771000Y-62313816D01*
X122738297Y-62478228D01*
X122674147Y-62633100D01*
X122581015Y-62772481D01*
X122462481Y-62891015D01*
X122323100Y-62984147D01*
X122168228Y-63048297D01*
X122003816Y-63081000D01*
X121836184Y-63081000D01*
X121671772Y-63048297D01*
X121516900Y-62984147D01*
X121377519Y-62891015D01*
X121258985Y-62772481D01*
X121165853Y-62633100D01*
X121101703Y-62478228D01*
X121069000Y-62313816D01*
X121069000Y-62146184D01*
X121101703Y-61981772D01*
X121165853Y-61826900D01*
X121258985Y-61687519D01*
X121377519Y-61568985D01*
X121516900Y-61475853D01*
X121671772Y-61411703D01*
X121836184Y-61379000D01*
X122003816Y-61379000D01*
X122168228Y-61411703D01*
G37*
G36*
X106928228Y-61411703D02*
G01*
X107083100Y-61475853D01*
X107222481Y-61568985D01*
X107341015Y-61687519D01*
X107434147Y-61826900D01*
X107498297Y-61981772D01*
X107531000Y-62146184D01*
X107531000Y-62313816D01*
X107498297Y-62478228D01*
X107434147Y-62633100D01*
X107341015Y-62772481D01*
X107222481Y-62891015D01*
X107083100Y-62984147D01*
X106928228Y-63048297D01*
X106763816Y-63081000D01*
X106596184Y-63081000D01*
X106431772Y-63048297D01*
X106276900Y-62984147D01*
X106137519Y-62891015D01*
X106018985Y-62772481D01*
X105925853Y-62633100D01*
X105861703Y-62478228D01*
X105829000Y-62313816D01*
X105829000Y-62146184D01*
X105861703Y-61981772D01*
X105925853Y-61826900D01*
X106018985Y-61687519D01*
X106137519Y-61568985D01*
X106276900Y-61475853D01*
X106431772Y-61411703D01*
X106596184Y-61379000D01*
X106763816Y-61379000D01*
X106928228Y-61411703D01*
G37*
G36*
X100021000Y-62021000D02*
G01*
X97919000Y-62021000D01*
X97919000Y-59919000D01*
X100021000Y-59919000D01*
X100021000Y-62021000D01*
G37*
G36*
X106928228Y-58871703D02*
G01*
X107083100Y-58935853D01*
X107222481Y-59028985D01*
X107341015Y-59147519D01*
X107434147Y-59286900D01*
X107498297Y-59441772D01*
X107531000Y-59606184D01*
X107531000Y-59773816D01*
X107498297Y-59938228D01*
X107434147Y-60093100D01*
X107341015Y-60232481D01*
X107222481Y-60351015D01*
X107083100Y-60444147D01*
X106928228Y-60508297D01*
X106763816Y-60541000D01*
X106596184Y-60541000D01*
X106431772Y-60508297D01*
X106276900Y-60444147D01*
X106137519Y-60351015D01*
X106018985Y-60232481D01*
X105925853Y-60093100D01*
X105861703Y-59938228D01*
X105829000Y-59773816D01*
X105829000Y-59606184D01*
X105861703Y-59441772D01*
X105925853Y-59286900D01*
X106018985Y-59147519D01*
X106137519Y-59028985D01*
X106276900Y-58935853D01*
X106431772Y-58871703D01*
X106596184Y-58839000D01*
X106763816Y-58839000D01*
X106928228Y-58871703D01*
G37*
G36*
X122168228Y-58871703D02*
G01*
X122323100Y-58935853D01*
X122462481Y-59028985D01*
X122581015Y-59147519D01*
X122674147Y-59286900D01*
X122738297Y-59441772D01*
X122771000Y-59606184D01*
X122771000Y-59773816D01*
X122738297Y-59938228D01*
X122674147Y-60093100D01*
X122581015Y-60232481D01*
X122462481Y-60351015D01*
X122323100Y-60444147D01*
X122168228Y-60508297D01*
X122003816Y-60541000D01*
X121836184Y-60541000D01*
X121671772Y-60508297D01*
X121516900Y-60444147D01*
X121377519Y-60351015D01*
X121258985Y-60232481D01*
X121165853Y-60093100D01*
X121101703Y-59938228D01*
X121069000Y-59773816D01*
X121069000Y-59606184D01*
X121101703Y-59441772D01*
X121165853Y-59286900D01*
X121258985Y-59147519D01*
X121377519Y-59028985D01*
X121516900Y-58935853D01*
X121671772Y-58871703D01*
X121836184Y-58839000D01*
X122003816Y-58839000D01*
X122168228Y-58871703D01*
G37*
G36*
X122168228Y-56331703D02*
G01*
X122323100Y-56395853D01*
X122462481Y-56488985D01*
X122581015Y-56607519D01*
X122674147Y-56746900D01*
X122738297Y-56901772D01*
X122771000Y-57066184D01*
X122771000Y-57233816D01*
X122738297Y-57398228D01*
X122674147Y-57553100D01*
X122581015Y-57692481D01*
X122462481Y-57811015D01*
X122323100Y-57904147D01*
X122168228Y-57968297D01*
X122003816Y-58001000D01*
X121836184Y-58001000D01*
X121671772Y-57968297D01*
X121516900Y-57904147D01*
X121377519Y-57811015D01*
X121258985Y-57692481D01*
X121165853Y-57553100D01*
X121101703Y-57398228D01*
X121069000Y-57233816D01*
X121069000Y-57066184D01*
X121101703Y-56901772D01*
X121165853Y-56746900D01*
X121258985Y-56607519D01*
X121377519Y-56488985D01*
X121516900Y-56395853D01*
X121671772Y-56331703D01*
X121836184Y-56299000D01*
X122003816Y-56299000D01*
X122168228Y-56331703D01*
G37*
G36*
X106928228Y-56331703D02*
G01*
X107083100Y-56395853D01*
X107222481Y-56488985D01*
X107341015Y-56607519D01*
X107434147Y-56746900D01*
X107498297Y-56901772D01*
X107531000Y-57066184D01*
X107531000Y-57233816D01*
X107498297Y-57398228D01*
X107434147Y-57553100D01*
X107341015Y-57692481D01*
X107222481Y-57811015D01*
X107083100Y-57904147D01*
X106928228Y-57968297D01*
X106763816Y-58001000D01*
X106596184Y-58001000D01*
X106431772Y-57968297D01*
X106276900Y-57904147D01*
X106137519Y-57811015D01*
X106018985Y-57692481D01*
X105925853Y-57553100D01*
X105861703Y-57398228D01*
X105829000Y-57233816D01*
X105829000Y-57066184D01*
X105861703Y-56901772D01*
X105925853Y-56746900D01*
X106018985Y-56607519D01*
X106137519Y-56488985D01*
X106276900Y-56395853D01*
X106431772Y-56331703D01*
X106596184Y-56299000D01*
X106763816Y-56299000D01*
X106928228Y-56331703D01*
G37*
G36*
X106928228Y-53791703D02*
G01*
X107083100Y-53855853D01*
X107222481Y-53948985D01*
X107341015Y-54067519D01*
X107434147Y-54206900D01*
X107498297Y-54361772D01*
X107531000Y-54526184D01*
X107531000Y-54693816D01*
X107498297Y-54858228D01*
X107434147Y-55013100D01*
X107341015Y-55152481D01*
X107222481Y-55271015D01*
X107083100Y-55364147D01*
X106928228Y-55428297D01*
X106763816Y-55461000D01*
X106596184Y-55461000D01*
X106431772Y-55428297D01*
X106276900Y-55364147D01*
X106137519Y-55271015D01*
X106018985Y-55152481D01*
X105925853Y-55013100D01*
X105861703Y-54858228D01*
X105829000Y-54693816D01*
X105829000Y-54526184D01*
X105861703Y-54361772D01*
X105925853Y-54206900D01*
X106018985Y-54067519D01*
X106137519Y-53948985D01*
X106276900Y-53855853D01*
X106431772Y-53791703D01*
X106596184Y-53759000D01*
X106763816Y-53759000D01*
X106928228Y-53791703D01*
G37*
G36*
X122168228Y-53791703D02*
G01*
X122323100Y-53855853D01*
X122462481Y-53948985D01*
X122581015Y-54067519D01*
X122674147Y-54206900D01*
X122738297Y-54361772D01*
X122771000Y-54526184D01*
X122771000Y-54693816D01*
X122738297Y-54858228D01*
X122674147Y-55013100D01*
X122581015Y-55152481D01*
X122462481Y-55271015D01*
X122323100Y-55364147D01*
X122168228Y-55428297D01*
X122003816Y-55461000D01*
X121836184Y-55461000D01*
X121671772Y-55428297D01*
X121516900Y-55364147D01*
X121377519Y-55271015D01*
X121258985Y-55152481D01*
X121165853Y-55013100D01*
X121101703Y-54858228D01*
X121069000Y-54693816D01*
X121069000Y-54526184D01*
X121101703Y-54361772D01*
X121165853Y-54206900D01*
X121258985Y-54067519D01*
X121377519Y-53948985D01*
X121516900Y-53855853D01*
X121671772Y-53791703D01*
X121836184Y-53759000D01*
X122003816Y-53759000D01*
X122168228Y-53791703D01*
G37*
G36*
X128151000Y-53221000D02*
G01*
X125849000Y-53221000D01*
X125849000Y-50919000D01*
X128151000Y-50919000D01*
X128151000Y-53221000D01*
G37*
G36*
X106928228Y-51251703D02*
G01*
X107083100Y-51315853D01*
X107222481Y-51408985D01*
X107341015Y-51527519D01*
X107434147Y-51666900D01*
X107498297Y-51821772D01*
X107531000Y-51986184D01*
X107531000Y-52153816D01*
X107498297Y-52318228D01*
X107434147Y-52473100D01*
X107341015Y-52612481D01*
X107222481Y-52731015D01*
X107083100Y-52824147D01*
X106928228Y-52888297D01*
X106763816Y-52921000D01*
X106596184Y-52921000D01*
X106431772Y-52888297D01*
X106276900Y-52824147D01*
X106137519Y-52731015D01*
X106018985Y-52612481D01*
X105925853Y-52473100D01*
X105861703Y-52318228D01*
X105829000Y-52153816D01*
X105829000Y-51986184D01*
X105861703Y-51821772D01*
X105925853Y-51666900D01*
X106018985Y-51527519D01*
X106137519Y-51408985D01*
X106276900Y-51315853D01*
X106431772Y-51251703D01*
X106596184Y-51219000D01*
X106763816Y-51219000D01*
X106928228Y-51251703D01*
G37*
G36*
X122168228Y-51251703D02*
G01*
X122323100Y-51315853D01*
X122462481Y-51408985D01*
X122581015Y-51527519D01*
X122674147Y-51666900D01*
X122738297Y-51821772D01*
X122771000Y-51986184D01*
X122771000Y-52153816D01*
X122738297Y-52318228D01*
X122674147Y-52473100D01*
X122581015Y-52612481D01*
X122462481Y-52731015D01*
X122323100Y-52824147D01*
X122168228Y-52888297D01*
X122003816Y-52921000D01*
X121836184Y-52921000D01*
X121671772Y-52888297D01*
X121516900Y-52824147D01*
X121377519Y-52731015D01*
X121258985Y-52612481D01*
X121165853Y-52473100D01*
X121101703Y-52318228D01*
X121069000Y-52153816D01*
X121069000Y-51986184D01*
X121101703Y-51821772D01*
X121165853Y-51666900D01*
X121258985Y-51527519D01*
X121377519Y-51408985D01*
X121516900Y-51315853D01*
X121671772Y-51251703D01*
X121836184Y-51219000D01*
X122003816Y-51219000D01*
X122168228Y-51251703D01*
G37*
G36*
X106928228Y-48711703D02*
G01*
X107083100Y-48775853D01*
X107222481Y-48868985D01*
X107341015Y-48987519D01*
X107434147Y-49126900D01*
X107498297Y-49281772D01*
X107531000Y-49446184D01*
X107531000Y-49613816D01*
X107498297Y-49778228D01*
X107434147Y-49933100D01*
X107341015Y-50072481D01*
X107222481Y-50191015D01*
X107083100Y-50284147D01*
X106928228Y-50348297D01*
X106763816Y-50381000D01*
X106596184Y-50381000D01*
X106431772Y-50348297D01*
X106276900Y-50284147D01*
X106137519Y-50191015D01*
X106018985Y-50072481D01*
X105925853Y-49933100D01*
X105861703Y-49778228D01*
X105829000Y-49613816D01*
X105829000Y-49446184D01*
X105861703Y-49281772D01*
X105925853Y-49126900D01*
X106018985Y-48987519D01*
X106137519Y-48868985D01*
X106276900Y-48775853D01*
X106431772Y-48711703D01*
X106596184Y-48679000D01*
X106763816Y-48679000D01*
X106928228Y-48711703D01*
G37*
G36*
X122168228Y-48711703D02*
G01*
X122323100Y-48775853D01*
X122462481Y-48868985D01*
X122581015Y-48987519D01*
X122674147Y-49126900D01*
X122738297Y-49281772D01*
X122771000Y-49446184D01*
X122771000Y-49613816D01*
X122738297Y-49778228D01*
X122674147Y-49933100D01*
X122581015Y-50072481D01*
X122462481Y-50191015D01*
X122323100Y-50284147D01*
X122168228Y-50348297D01*
X122003816Y-50381000D01*
X121836184Y-50381000D01*
X121671772Y-50348297D01*
X121516900Y-50284147D01*
X121377519Y-50191015D01*
X121258985Y-50072481D01*
X121165853Y-49933100D01*
X121101703Y-49778228D01*
X121069000Y-49613816D01*
X121069000Y-49446184D01*
X121101703Y-49281772D01*
X121165853Y-49126900D01*
X121258985Y-48987519D01*
X121377519Y-48868985D01*
X121516900Y-48775853D01*
X121671772Y-48711703D01*
X121836184Y-48679000D01*
X122003816Y-48679000D01*
X122168228Y-48711703D01*
G37*
G36*
X127224549Y-45861116D02*
G01*
X127335734Y-45883232D01*
X127545203Y-45969997D01*
X127733720Y-46095960D01*
X127894040Y-46256280D01*
X128020003Y-46444797D01*
X128020004Y-46444799D01*
X128021131Y-46447520D01*
X128106768Y-46654266D01*
X128151000Y-46876636D01*
X128151000Y-47103364D01*
X128115997Y-47279339D01*
X128106768Y-47325733D01*
X128021131Y-47532481D01*
X128020003Y-47535203D01*
X127894040Y-47723720D01*
X127733720Y-47884040D01*
X127545203Y-48010003D01*
X127335734Y-48096768D01*
X127224549Y-48118884D01*
X127113365Y-48141000D01*
X126886635Y-48141000D01*
X126775451Y-48118884D01*
X126664266Y-48096768D01*
X126454797Y-48010003D01*
X126266280Y-47884040D01*
X126105960Y-47723720D01*
X125979997Y-47535203D01*
X125978870Y-47532481D01*
X125893232Y-47325733D01*
X125884004Y-47279339D01*
X125849000Y-47103364D01*
X125849000Y-46876636D01*
X125893232Y-46654266D01*
X125978869Y-46447520D01*
X125979996Y-46444799D01*
X125979997Y-46444797D01*
X126105960Y-46256280D01*
X126266280Y-46095960D01*
X126454797Y-45969997D01*
X126664266Y-45883232D01*
X126775451Y-45861116D01*
X126886635Y-45839000D01*
X127113365Y-45839000D01*
X127224549Y-45861116D01*
G37*
G36*
X106928228Y-46171703D02*
G01*
X107083100Y-46235853D01*
X107222481Y-46328985D01*
X107341015Y-46447519D01*
X107434147Y-46586900D01*
X107498297Y-46741772D01*
X107531000Y-46906184D01*
X107531000Y-47073816D01*
X107498297Y-47238228D01*
X107434147Y-47393100D01*
X107341015Y-47532481D01*
X107222481Y-47651015D01*
X107083100Y-47744147D01*
X106928228Y-47808297D01*
X106763816Y-47841000D01*
X106596184Y-47841000D01*
X106431772Y-47808297D01*
X106276900Y-47744147D01*
X106137519Y-47651015D01*
X106018985Y-47532481D01*
X105925853Y-47393100D01*
X105861703Y-47238228D01*
X105829000Y-47073816D01*
X105829000Y-46906184D01*
X105861703Y-46741772D01*
X105925853Y-46586900D01*
X106018985Y-46447519D01*
X106137519Y-46328985D01*
X106276900Y-46235853D01*
X106431772Y-46171703D01*
X106596184Y-46139000D01*
X106763816Y-46139000D01*
X106928228Y-46171703D01*
G37*
G36*
X122168228Y-46171703D02*
G01*
X122323100Y-46235853D01*
X122462481Y-46328985D01*
X122581015Y-46447519D01*
X122674147Y-46586900D01*
X122738297Y-46741772D01*
X122771000Y-46906184D01*
X122771000Y-47073816D01*
X122738297Y-47238228D01*
X122674147Y-47393100D01*
X122581015Y-47532481D01*
X122462481Y-47651015D01*
X122323100Y-47744147D01*
X122168228Y-47808297D01*
X122003816Y-47841000D01*
X121836184Y-47841000D01*
X121671772Y-47808297D01*
X121516900Y-47744147D01*
X121377519Y-47651015D01*
X121258985Y-47532481D01*
X121165853Y-47393100D01*
X121101703Y-47238228D01*
X121069000Y-47073816D01*
X121069000Y-46906184D01*
X121101703Y-46741772D01*
X121165853Y-46586900D01*
X121258985Y-46447519D01*
X121377519Y-46328985D01*
X121516900Y-46235853D01*
X121671772Y-46171703D01*
X121836184Y-46139000D01*
X122003816Y-46139000D01*
X122168228Y-46171703D01*
G37*
G36*
X96849487Y-45198996D02*
G01*
X97086253Y-45297068D01*
X97086255Y-45297069D01*
X97299339Y-45439447D01*
X97480553Y-45620661D01*
X97601052Y-45801000D01*
X97622932Y-45833747D01*
X97721004Y-46070513D01*
X97771000Y-46321861D01*
X97771000Y-46578139D01*
X97721004Y-46829487D01*
X97622932Y-47066253D01*
X97622931Y-47066255D01*
X97480553Y-47279339D01*
X97299339Y-47460553D01*
X97086255Y-47602931D01*
X97086254Y-47602932D01*
X97086253Y-47602932D01*
X96849487Y-47701004D01*
X96598139Y-47751000D01*
X96341861Y-47751000D01*
X96090513Y-47701004D01*
X95853747Y-47602932D01*
X95853746Y-47602932D01*
X95853745Y-47602931D01*
X95640661Y-47460553D01*
X95459447Y-47279339D01*
X95317069Y-47066255D01*
X95317068Y-47066253D01*
X95218996Y-46829487D01*
X95169000Y-46578139D01*
X95169000Y-46321861D01*
X95218996Y-46070513D01*
X95317068Y-45833747D01*
X95338949Y-45801000D01*
X95459447Y-45620661D01*
X95640661Y-45439447D01*
X95853745Y-45297069D01*
X95853747Y-45297068D01*
X96090513Y-45198996D01*
X96341861Y-45149000D01*
X96598139Y-45149000D01*
X96849487Y-45198996D01*
G37*
G36*
X20849487Y-45198996D02*
G01*
X21086253Y-45297068D01*
X21086255Y-45297069D01*
X21299339Y-45439447D01*
X21480553Y-45620661D01*
X21601052Y-45801000D01*
X21622932Y-45833747D01*
X21721004Y-46070513D01*
X21771000Y-46321861D01*
X21771000Y-46578139D01*
X21721004Y-46829487D01*
X21622932Y-47066253D01*
X21622931Y-47066255D01*
X21480553Y-47279339D01*
X21299339Y-47460553D01*
X21086255Y-47602931D01*
X21086254Y-47602932D01*
X21086253Y-47602932D01*
X20849487Y-47701004D01*
X20598139Y-47751000D01*
X20341861Y-47751000D01*
X20090513Y-47701004D01*
X19853747Y-47602932D01*
X19853746Y-47602932D01*
X19853745Y-47602931D01*
X19640661Y-47460553D01*
X19459447Y-47279339D01*
X19317069Y-47066255D01*
X19317068Y-47066253D01*
X19218996Y-46829487D01*
X19169000Y-46578139D01*
X19169000Y-46321861D01*
X19218996Y-46070513D01*
X19317068Y-45833747D01*
X19338949Y-45801000D01*
X19459447Y-45620661D01*
X19640661Y-45439447D01*
X19853745Y-45297069D01*
X19853747Y-45297068D01*
X20090513Y-45198996D01*
X20341861Y-45149000D01*
X20598139Y-45149000D01*
X20849487Y-45198996D01*
G37*
G36*
X29391345Y-43115300D02*
G01*
X29391348Y-43115301D01*
X29391349Y-43115301D01*
X29570613Y-43169680D01*
X29570616Y-43169682D01*
X29570617Y-43169682D01*
X29735823Y-43257986D01*
X29880632Y-43376828D01*
X29999474Y-43521637D01*
X30040825Y-43599000D01*
X30087780Y-43686847D01*
X30090512Y-43695853D01*
X30142160Y-43866114D01*
X30155920Y-44005823D01*
X30155920Y-44899258D01*
X30142160Y-45038965D01*
X30142159Y-45038968D01*
X30142159Y-45038969D01*
X30087780Y-45218233D01*
X30087778Y-45218236D01*
X30087778Y-45218237D01*
X29999474Y-45383443D01*
X29880632Y-45528252D01*
X29735823Y-45647094D01*
X29575368Y-45732858D01*
X29570612Y-45735400D01*
X29391348Y-45789779D01*
X29391347Y-45789779D01*
X29391344Y-45789780D01*
X29204920Y-45808141D01*
X29018495Y-45789780D01*
X29018492Y-45789779D01*
X29018491Y-45789779D01*
X28839227Y-45735400D01*
X28834471Y-45732858D01*
X28674017Y-45647094D01*
X28529208Y-45528252D01*
X28410366Y-45383443D01*
X28322062Y-45218236D01*
X28322061Y-45218233D01*
X28322060Y-45218232D01*
X28267681Y-45038968D01*
X28267681Y-45038967D01*
X28267680Y-45038964D01*
X28253920Y-44899257D01*
X28253920Y-44005822D01*
X28267680Y-43866110D01*
X28322060Y-43686848D01*
X28410367Y-43521637D01*
X28529209Y-43376828D01*
X28674018Y-43257986D01*
X28839224Y-43169682D01*
X28839225Y-43169682D01*
X28839228Y-43169680D01*
X29018492Y-43115301D01*
X29018493Y-43115301D01*
X29018496Y-43115300D01*
X29204920Y-43096939D01*
X29391345Y-43115300D01*
G37*
G36*
X62411345Y-43115300D02*
G01*
X62411348Y-43115301D01*
X62411349Y-43115301D01*
X62590613Y-43169680D01*
X62590616Y-43169682D01*
X62590617Y-43169682D01*
X62755823Y-43257986D01*
X62900632Y-43376828D01*
X63019474Y-43521637D01*
X63060825Y-43599000D01*
X63107780Y-43686847D01*
X63110512Y-43695853D01*
X63162160Y-43866114D01*
X63175920Y-44005823D01*
X63175920Y-44899258D01*
X63162160Y-45038965D01*
X63162159Y-45038968D01*
X63162159Y-45038969D01*
X63107780Y-45218233D01*
X63107778Y-45218236D01*
X63107778Y-45218237D01*
X63019474Y-45383443D01*
X62900632Y-45528252D01*
X62755823Y-45647094D01*
X62595368Y-45732858D01*
X62590612Y-45735400D01*
X62411348Y-45789779D01*
X62411347Y-45789779D01*
X62411344Y-45789780D01*
X62224920Y-45808141D01*
X62038495Y-45789780D01*
X62038492Y-45789779D01*
X62038491Y-45789779D01*
X61859227Y-45735400D01*
X61854471Y-45732858D01*
X61694017Y-45647094D01*
X61549208Y-45528252D01*
X61430366Y-45383443D01*
X61342062Y-45218236D01*
X61342061Y-45218233D01*
X61342060Y-45218232D01*
X61287681Y-45038968D01*
X61287681Y-45038967D01*
X61287680Y-45038964D01*
X61273920Y-44899257D01*
X61273920Y-44005822D01*
X61287680Y-43866110D01*
X61342060Y-43686848D01*
X61430367Y-43521637D01*
X61549209Y-43376828D01*
X61694018Y-43257986D01*
X61859224Y-43169682D01*
X61859225Y-43169682D01*
X61859228Y-43169680D01*
X62038492Y-43115301D01*
X62038493Y-43115301D01*
X62038496Y-43115300D01*
X62224920Y-43096939D01*
X62411345Y-43115300D01*
G37*
G36*
X31936425Y-43112760D02*
G01*
X31936428Y-43112761D01*
X31936429Y-43112761D01*
X32115693Y-43167140D01*
X32115696Y-43167142D01*
X32115697Y-43167142D01*
X32280903Y-43255446D01*
X32425712Y-43374288D01*
X32544554Y-43519097D01*
X32604744Y-43631705D01*
X32632860Y-43684307D01*
X32636362Y-43695852D01*
X32687240Y-43863574D01*
X32701000Y-44003283D01*
X32701000Y-44896718D01*
X32687240Y-45036425D01*
X32687239Y-45036428D01*
X32687239Y-45036429D01*
X32632860Y-45215693D01*
X32632858Y-45215696D01*
X32632858Y-45215697D01*
X32544554Y-45380903D01*
X32425712Y-45525712D01*
X32280903Y-45644554D01*
X32115696Y-45732858D01*
X32115692Y-45732860D01*
X31936428Y-45787239D01*
X31936427Y-45787239D01*
X31936424Y-45787240D01*
X31750000Y-45805601D01*
X31563575Y-45787240D01*
X31563572Y-45787239D01*
X31563571Y-45787239D01*
X31384307Y-45732860D01*
X31384303Y-45732858D01*
X31219097Y-45644554D01*
X31074288Y-45525712D01*
X30955446Y-45380903D01*
X30867142Y-45215696D01*
X30867141Y-45215693D01*
X30867140Y-45215692D01*
X30812761Y-45036428D01*
X30812761Y-45036427D01*
X30812760Y-45036424D01*
X30799000Y-44896717D01*
X30799000Y-44003282D01*
X30812760Y-43863570D01*
X30867140Y-43684308D01*
X30955447Y-43519097D01*
X31074289Y-43374288D01*
X31219098Y-43255446D01*
X31384304Y-43167142D01*
X31384305Y-43167142D01*
X31384308Y-43167140D01*
X31563572Y-43112761D01*
X31563573Y-43112761D01*
X31563576Y-43112760D01*
X31750000Y-43094399D01*
X31936425Y-43112760D01*
G37*
G36*
X64956425Y-43112760D02*
G01*
X64956428Y-43112761D01*
X64956429Y-43112761D01*
X65135693Y-43167140D01*
X65135696Y-43167142D01*
X65135697Y-43167142D01*
X65300903Y-43255446D01*
X65445712Y-43374288D01*
X65564554Y-43519097D01*
X65624744Y-43631705D01*
X65652860Y-43684307D01*
X65656362Y-43695852D01*
X65707240Y-43863574D01*
X65721000Y-44003283D01*
X65721000Y-44896718D01*
X65707240Y-45036425D01*
X65707239Y-45036428D01*
X65707239Y-45036429D01*
X65652860Y-45215693D01*
X65652858Y-45215696D01*
X65652858Y-45215697D01*
X65564554Y-45380903D01*
X65445712Y-45525712D01*
X65300903Y-45644554D01*
X65135696Y-45732858D01*
X65135692Y-45732860D01*
X64956428Y-45787239D01*
X64956427Y-45787239D01*
X64956424Y-45787240D01*
X64770000Y-45805601D01*
X64583575Y-45787240D01*
X64583572Y-45787239D01*
X64583571Y-45787239D01*
X64404307Y-45732860D01*
X64404303Y-45732858D01*
X64239097Y-45644554D01*
X64094288Y-45525712D01*
X63975446Y-45380903D01*
X63887142Y-45215696D01*
X63887141Y-45215693D01*
X63887140Y-45215692D01*
X63832761Y-45036428D01*
X63832761Y-45036427D01*
X63832760Y-45036424D01*
X63819000Y-44896717D01*
X63819000Y-44003282D01*
X63832760Y-43863570D01*
X63887140Y-43684308D01*
X63975447Y-43519097D01*
X64094289Y-43374288D01*
X64239098Y-43255446D01*
X64404304Y-43167142D01*
X64404305Y-43167142D01*
X64404308Y-43167140D01*
X64583572Y-43112761D01*
X64583573Y-43112761D01*
X64583576Y-43112760D01*
X64770000Y-43094399D01*
X64956425Y-43112760D01*
G37*
G36*
X26856425Y-43112760D02*
G01*
X26856428Y-43112761D01*
X26856429Y-43112761D01*
X27035693Y-43167140D01*
X27035696Y-43167142D01*
X27035697Y-43167142D01*
X27200903Y-43255446D01*
X27345712Y-43374288D01*
X27464554Y-43519097D01*
X27524744Y-43631705D01*
X27552860Y-43684307D01*
X27556362Y-43695852D01*
X27607240Y-43863574D01*
X27621000Y-44003283D01*
X27621000Y-44896718D01*
X27607240Y-45036425D01*
X27607239Y-45036428D01*
X27607239Y-45036429D01*
X27552860Y-45215693D01*
X27552858Y-45215696D01*
X27552858Y-45215697D01*
X27464554Y-45380903D01*
X27345712Y-45525712D01*
X27200903Y-45644554D01*
X27035696Y-45732858D01*
X27035692Y-45732860D01*
X26856428Y-45787239D01*
X26856427Y-45787239D01*
X26856424Y-45787240D01*
X26670000Y-45805601D01*
X26483575Y-45787240D01*
X26483572Y-45787239D01*
X26483571Y-45787239D01*
X26304307Y-45732860D01*
X26304303Y-45732858D01*
X26139097Y-45644554D01*
X25994288Y-45525712D01*
X25875446Y-45380903D01*
X25787142Y-45215696D01*
X25787141Y-45215693D01*
X25787140Y-45215692D01*
X25732761Y-45036428D01*
X25732761Y-45036427D01*
X25732760Y-45036424D01*
X25719000Y-44896717D01*
X25719000Y-44003282D01*
X25732760Y-43863570D01*
X25787140Y-43684308D01*
X25875447Y-43519097D01*
X25994289Y-43374288D01*
X26139098Y-43255446D01*
X26304304Y-43167142D01*
X26304305Y-43167142D01*
X26304308Y-43167140D01*
X26483572Y-43112761D01*
X26483573Y-43112761D01*
X26483576Y-43112760D01*
X26670000Y-43094399D01*
X26856425Y-43112760D01*
G37*
G36*
X34476425Y-43112760D02*
G01*
X34476428Y-43112761D01*
X34476429Y-43112761D01*
X34655693Y-43167140D01*
X34655696Y-43167142D01*
X34655697Y-43167142D01*
X34820903Y-43255446D01*
X34965712Y-43374288D01*
X35084554Y-43519097D01*
X35144744Y-43631705D01*
X35172860Y-43684307D01*
X35176362Y-43695852D01*
X35227240Y-43863574D01*
X35241000Y-44003283D01*
X35241000Y-44896718D01*
X35227240Y-45036425D01*
X35227239Y-45036428D01*
X35227239Y-45036429D01*
X35172860Y-45215693D01*
X35172858Y-45215696D01*
X35172858Y-45215697D01*
X35084554Y-45380903D01*
X34965712Y-45525712D01*
X34820903Y-45644554D01*
X34655696Y-45732858D01*
X34655692Y-45732860D01*
X34476428Y-45787239D01*
X34476427Y-45787239D01*
X34476424Y-45787240D01*
X34290000Y-45805601D01*
X34103575Y-45787240D01*
X34103572Y-45787239D01*
X34103571Y-45787239D01*
X33924307Y-45732860D01*
X33924303Y-45732858D01*
X33759097Y-45644554D01*
X33614288Y-45525712D01*
X33495446Y-45380903D01*
X33407142Y-45215696D01*
X33407141Y-45215693D01*
X33407140Y-45215692D01*
X33352761Y-45036428D01*
X33352761Y-45036427D01*
X33352760Y-45036424D01*
X33339000Y-44896717D01*
X33339000Y-44003282D01*
X33352760Y-43863570D01*
X33407140Y-43684308D01*
X33495447Y-43519097D01*
X33614289Y-43374288D01*
X33759098Y-43255446D01*
X33924304Y-43167142D01*
X33924305Y-43167142D01*
X33924308Y-43167140D01*
X34103572Y-43112761D01*
X34103573Y-43112761D01*
X34103576Y-43112760D01*
X34290000Y-43094399D01*
X34476425Y-43112760D01*
G37*
G36*
X37016425Y-43112760D02*
G01*
X37016428Y-43112761D01*
X37016429Y-43112761D01*
X37195693Y-43167140D01*
X37195696Y-43167142D01*
X37195697Y-43167142D01*
X37360903Y-43255446D01*
X37505712Y-43374288D01*
X37624554Y-43519097D01*
X37684744Y-43631705D01*
X37712860Y-43684307D01*
X37716362Y-43695852D01*
X37767240Y-43863574D01*
X37781000Y-44003283D01*
X37781000Y-44896718D01*
X37767240Y-45036425D01*
X37767239Y-45036428D01*
X37767239Y-45036429D01*
X37712860Y-45215693D01*
X37712858Y-45215696D01*
X37712858Y-45215697D01*
X37624554Y-45380903D01*
X37505712Y-45525712D01*
X37360903Y-45644554D01*
X37195696Y-45732858D01*
X37195692Y-45732860D01*
X37016428Y-45787239D01*
X37016427Y-45787239D01*
X37016424Y-45787240D01*
X36830000Y-45805601D01*
X36643575Y-45787240D01*
X36643572Y-45787239D01*
X36643571Y-45787239D01*
X36464307Y-45732860D01*
X36464303Y-45732858D01*
X36299097Y-45644554D01*
X36154288Y-45525712D01*
X36035446Y-45380903D01*
X35947142Y-45215696D01*
X35947141Y-45215693D01*
X35947140Y-45215692D01*
X35892761Y-45036428D01*
X35892761Y-45036427D01*
X35892760Y-45036424D01*
X35879000Y-44896717D01*
X35879000Y-44003282D01*
X35892760Y-43863570D01*
X35947140Y-43684308D01*
X36035447Y-43519097D01*
X36154289Y-43374288D01*
X36299098Y-43255446D01*
X36464304Y-43167142D01*
X36464305Y-43167142D01*
X36464308Y-43167140D01*
X36643572Y-43112761D01*
X36643573Y-43112761D01*
X36643576Y-43112760D01*
X36830000Y-43094399D01*
X37016425Y-43112760D01*
G37*
G36*
X57336425Y-43112760D02*
G01*
X57336428Y-43112761D01*
X57336429Y-43112761D01*
X57515693Y-43167140D01*
X57515696Y-43167142D01*
X57515697Y-43167142D01*
X57680903Y-43255446D01*
X57825712Y-43374288D01*
X57944554Y-43519097D01*
X58004744Y-43631705D01*
X58032860Y-43684307D01*
X58036362Y-43695852D01*
X58087240Y-43863574D01*
X58101000Y-44003283D01*
X58101000Y-44896718D01*
X58087240Y-45036425D01*
X58087239Y-45036428D01*
X58087239Y-45036429D01*
X58032860Y-45215693D01*
X58032858Y-45215696D01*
X58032858Y-45215697D01*
X57944554Y-45380903D01*
X57825712Y-45525712D01*
X57680903Y-45644554D01*
X57515696Y-45732858D01*
X57515692Y-45732860D01*
X57336428Y-45787239D01*
X57336427Y-45787239D01*
X57336424Y-45787240D01*
X57150000Y-45805601D01*
X56963575Y-45787240D01*
X56963572Y-45787239D01*
X56963571Y-45787239D01*
X56784307Y-45732860D01*
X56784303Y-45732858D01*
X56619097Y-45644554D01*
X56474288Y-45525712D01*
X56355446Y-45380903D01*
X56267142Y-45215696D01*
X56267141Y-45215693D01*
X56267140Y-45215692D01*
X56212761Y-45036428D01*
X56212761Y-45036427D01*
X56212760Y-45036424D01*
X56199000Y-44896717D01*
X56199000Y-44003282D01*
X56212760Y-43863570D01*
X56267140Y-43684308D01*
X56355447Y-43519097D01*
X56474289Y-43374288D01*
X56619098Y-43255446D01*
X56784304Y-43167142D01*
X56784305Y-43167142D01*
X56784308Y-43167140D01*
X56963572Y-43112761D01*
X56963573Y-43112761D01*
X56963576Y-43112760D01*
X57150000Y-43094399D01*
X57336425Y-43112760D01*
G37*
G36*
X54796425Y-43112760D02*
G01*
X54796428Y-43112761D01*
X54796429Y-43112761D01*
X54975693Y-43167140D01*
X54975696Y-43167142D01*
X54975697Y-43167142D01*
X55140903Y-43255446D01*
X55285712Y-43374288D01*
X55404554Y-43519097D01*
X55464744Y-43631705D01*
X55492860Y-43684307D01*
X55496362Y-43695852D01*
X55547240Y-43863574D01*
X55561000Y-44003283D01*
X55561000Y-44896718D01*
X55547240Y-45036425D01*
X55547239Y-45036428D01*
X55547239Y-45036429D01*
X55492860Y-45215693D01*
X55492858Y-45215696D01*
X55492858Y-45215697D01*
X55404554Y-45380903D01*
X55285712Y-45525712D01*
X55140903Y-45644554D01*
X54975696Y-45732858D01*
X54975692Y-45732860D01*
X54796428Y-45787239D01*
X54796427Y-45787239D01*
X54796424Y-45787240D01*
X54610000Y-45805601D01*
X54423575Y-45787240D01*
X54423572Y-45787239D01*
X54423571Y-45787239D01*
X54244307Y-45732860D01*
X54244303Y-45732858D01*
X54079097Y-45644554D01*
X53934288Y-45525712D01*
X53815446Y-45380903D01*
X53727142Y-45215696D01*
X53727141Y-45215693D01*
X53727140Y-45215692D01*
X53672761Y-45036428D01*
X53672761Y-45036427D01*
X53672760Y-45036424D01*
X53659000Y-44896717D01*
X53659000Y-44003282D01*
X53672760Y-43863570D01*
X53727140Y-43684308D01*
X53815447Y-43519097D01*
X53934289Y-43374288D01*
X54079098Y-43255446D01*
X54244304Y-43167142D01*
X54244305Y-43167142D01*
X54244308Y-43167140D01*
X54423572Y-43112761D01*
X54423573Y-43112761D01*
X54423576Y-43112760D01*
X54610000Y-43094399D01*
X54796425Y-43112760D01*
G37*
G36*
X49716425Y-43112760D02*
G01*
X49716428Y-43112761D01*
X49716429Y-43112761D01*
X49895693Y-43167140D01*
X49895696Y-43167142D01*
X49895697Y-43167142D01*
X50060903Y-43255446D01*
X50205712Y-43374288D01*
X50324554Y-43519097D01*
X50384744Y-43631705D01*
X50412860Y-43684307D01*
X50416362Y-43695852D01*
X50467240Y-43863574D01*
X50481000Y-44003283D01*
X50481000Y-44896718D01*
X50467240Y-45036425D01*
X50467239Y-45036428D01*
X50467239Y-45036429D01*
X50412860Y-45215693D01*
X50412858Y-45215696D01*
X50412858Y-45215697D01*
X50324554Y-45380903D01*
X50205712Y-45525712D01*
X50060903Y-45644554D01*
X49895696Y-45732858D01*
X49895692Y-45732860D01*
X49716428Y-45787239D01*
X49716427Y-45787239D01*
X49716424Y-45787240D01*
X49530000Y-45805601D01*
X49343575Y-45787240D01*
X49343572Y-45787239D01*
X49343571Y-45787239D01*
X49164307Y-45732860D01*
X49164303Y-45732858D01*
X48999097Y-45644554D01*
X48854288Y-45525712D01*
X48735446Y-45380903D01*
X48647142Y-45215696D01*
X48647141Y-45215693D01*
X48647140Y-45215692D01*
X48592761Y-45036428D01*
X48592761Y-45036427D01*
X48592760Y-45036424D01*
X48579000Y-44896717D01*
X48579000Y-44003282D01*
X48592760Y-43863570D01*
X48647140Y-43684308D01*
X48735447Y-43519097D01*
X48854289Y-43374288D01*
X48999098Y-43255446D01*
X49164304Y-43167142D01*
X49164305Y-43167142D01*
X49164308Y-43167140D01*
X49343572Y-43112761D01*
X49343573Y-43112761D01*
X49343576Y-43112760D01*
X49530000Y-43094399D01*
X49716425Y-43112760D01*
G37*
G36*
X52256425Y-43112760D02*
G01*
X52256428Y-43112761D01*
X52256429Y-43112761D01*
X52435693Y-43167140D01*
X52435696Y-43167142D01*
X52435697Y-43167142D01*
X52600903Y-43255446D01*
X52745712Y-43374288D01*
X52864554Y-43519097D01*
X52924744Y-43631705D01*
X52952860Y-43684307D01*
X52956362Y-43695852D01*
X53007240Y-43863574D01*
X53021000Y-44003283D01*
X53021000Y-44896718D01*
X53007240Y-45036425D01*
X53007239Y-45036428D01*
X53007239Y-45036429D01*
X52952860Y-45215693D01*
X52952858Y-45215696D01*
X52952858Y-45215697D01*
X52864554Y-45380903D01*
X52745712Y-45525712D01*
X52600903Y-45644554D01*
X52435696Y-45732858D01*
X52435692Y-45732860D01*
X52256428Y-45787239D01*
X52256427Y-45787239D01*
X52256424Y-45787240D01*
X52070000Y-45805601D01*
X51883575Y-45787240D01*
X51883572Y-45787239D01*
X51883571Y-45787239D01*
X51704307Y-45732860D01*
X51704303Y-45732858D01*
X51539097Y-45644554D01*
X51394288Y-45525712D01*
X51275446Y-45380903D01*
X51187142Y-45215696D01*
X51187141Y-45215693D01*
X51187140Y-45215692D01*
X51132761Y-45036428D01*
X51132761Y-45036427D01*
X51132760Y-45036424D01*
X51119000Y-44896717D01*
X51119000Y-44003282D01*
X51132760Y-43863570D01*
X51187140Y-43684308D01*
X51275447Y-43519097D01*
X51394289Y-43374288D01*
X51539098Y-43255446D01*
X51704304Y-43167142D01*
X51704305Y-43167142D01*
X51704308Y-43167140D01*
X51883572Y-43112761D01*
X51883573Y-43112761D01*
X51883576Y-43112760D01*
X52070000Y-43094399D01*
X52256425Y-43112760D01*
G37*
G36*
X39556425Y-43112760D02*
G01*
X39556428Y-43112761D01*
X39556429Y-43112761D01*
X39735693Y-43167140D01*
X39735696Y-43167142D01*
X39735697Y-43167142D01*
X39900903Y-43255446D01*
X40045712Y-43374288D01*
X40164554Y-43519097D01*
X40224744Y-43631705D01*
X40252860Y-43684307D01*
X40256362Y-43695852D01*
X40307240Y-43863574D01*
X40321000Y-44003283D01*
X40321000Y-44896718D01*
X40307240Y-45036425D01*
X40307239Y-45036428D01*
X40307239Y-45036429D01*
X40252860Y-45215693D01*
X40252858Y-45215696D01*
X40252858Y-45215697D01*
X40164554Y-45380903D01*
X40045712Y-45525712D01*
X39900903Y-45644554D01*
X39735696Y-45732858D01*
X39735692Y-45732860D01*
X39556428Y-45787239D01*
X39556427Y-45787239D01*
X39556424Y-45787240D01*
X39370000Y-45805601D01*
X39183575Y-45787240D01*
X39183572Y-45787239D01*
X39183571Y-45787239D01*
X39004307Y-45732860D01*
X39004303Y-45732858D01*
X38839097Y-45644554D01*
X38694288Y-45525712D01*
X38575446Y-45380903D01*
X38487142Y-45215696D01*
X38487141Y-45215693D01*
X38487140Y-45215692D01*
X38432761Y-45036428D01*
X38432761Y-45036427D01*
X38432760Y-45036424D01*
X38419000Y-44896717D01*
X38419000Y-44003282D01*
X38432760Y-43863570D01*
X38487140Y-43684308D01*
X38575447Y-43519097D01*
X38694289Y-43374288D01*
X38839098Y-43255446D01*
X39004304Y-43167142D01*
X39004305Y-43167142D01*
X39004308Y-43167140D01*
X39183572Y-43112761D01*
X39183573Y-43112761D01*
X39183576Y-43112760D01*
X39370000Y-43094399D01*
X39556425Y-43112760D01*
G37*
G36*
X42096425Y-43112760D02*
G01*
X42096428Y-43112761D01*
X42096429Y-43112761D01*
X42275693Y-43167140D01*
X42275696Y-43167142D01*
X42275697Y-43167142D01*
X42440903Y-43255446D01*
X42585712Y-43374288D01*
X42704554Y-43519097D01*
X42764744Y-43631705D01*
X42792860Y-43684307D01*
X42796362Y-43695852D01*
X42847240Y-43863574D01*
X42861000Y-44003283D01*
X42861000Y-44896718D01*
X42847240Y-45036425D01*
X42847239Y-45036428D01*
X42847239Y-45036429D01*
X42792860Y-45215693D01*
X42792858Y-45215696D01*
X42792858Y-45215697D01*
X42704554Y-45380903D01*
X42585712Y-45525712D01*
X42440903Y-45644554D01*
X42275696Y-45732858D01*
X42275692Y-45732860D01*
X42096428Y-45787239D01*
X42096427Y-45787239D01*
X42096424Y-45787240D01*
X41910000Y-45805601D01*
X41723575Y-45787240D01*
X41723572Y-45787239D01*
X41723571Y-45787239D01*
X41544307Y-45732860D01*
X41544303Y-45732858D01*
X41379097Y-45644554D01*
X41234288Y-45525712D01*
X41115446Y-45380903D01*
X41027142Y-45215696D01*
X41027141Y-45215693D01*
X41027140Y-45215692D01*
X40972761Y-45036428D01*
X40972761Y-45036427D01*
X40972760Y-45036424D01*
X40959000Y-44896717D01*
X40959000Y-44003282D01*
X40972760Y-43863570D01*
X41027140Y-43684308D01*
X41115447Y-43519097D01*
X41234289Y-43374288D01*
X41379098Y-43255446D01*
X41544304Y-43167142D01*
X41544305Y-43167142D01*
X41544308Y-43167140D01*
X41723572Y-43112761D01*
X41723573Y-43112761D01*
X41723576Y-43112760D01*
X41910000Y-43094399D01*
X42096425Y-43112760D01*
G37*
G36*
X44636425Y-43112760D02*
G01*
X44636428Y-43112761D01*
X44636429Y-43112761D01*
X44815693Y-43167140D01*
X44815696Y-43167142D01*
X44815697Y-43167142D01*
X44980903Y-43255446D01*
X45125712Y-43374288D01*
X45244554Y-43519097D01*
X45304744Y-43631705D01*
X45332860Y-43684307D01*
X45336362Y-43695852D01*
X45387240Y-43863574D01*
X45401000Y-44003283D01*
X45401000Y-44896718D01*
X45387240Y-45036425D01*
X45387239Y-45036428D01*
X45387239Y-45036429D01*
X45332860Y-45215693D01*
X45332858Y-45215696D01*
X45332858Y-45215697D01*
X45244554Y-45380903D01*
X45125712Y-45525712D01*
X44980903Y-45644554D01*
X44815696Y-45732858D01*
X44815692Y-45732860D01*
X44636428Y-45787239D01*
X44636427Y-45787239D01*
X44636424Y-45787240D01*
X44450000Y-45805601D01*
X44263575Y-45787240D01*
X44263572Y-45787239D01*
X44263571Y-45787239D01*
X44084307Y-45732860D01*
X44084303Y-45732858D01*
X43919097Y-45644554D01*
X43774288Y-45525712D01*
X43655446Y-45380903D01*
X43567142Y-45215696D01*
X43567141Y-45215693D01*
X43567140Y-45215692D01*
X43512761Y-45036428D01*
X43512761Y-45036427D01*
X43512760Y-45036424D01*
X43499000Y-44896717D01*
X43499000Y-44003282D01*
X43512760Y-43863570D01*
X43567140Y-43684308D01*
X43655447Y-43519097D01*
X43774289Y-43374288D01*
X43919098Y-43255446D01*
X44084304Y-43167142D01*
X44084305Y-43167142D01*
X44084308Y-43167140D01*
X44263572Y-43112761D01*
X44263573Y-43112761D01*
X44263576Y-43112760D01*
X44450000Y-43094399D01*
X44636425Y-43112760D01*
G37*
G36*
X47176425Y-43112760D02*
G01*
X47176428Y-43112761D01*
X47176429Y-43112761D01*
X47355693Y-43167140D01*
X47355696Y-43167142D01*
X47355697Y-43167142D01*
X47520903Y-43255446D01*
X47665712Y-43374288D01*
X47784554Y-43519097D01*
X47844744Y-43631705D01*
X47872860Y-43684307D01*
X47876362Y-43695852D01*
X47927240Y-43863574D01*
X47941000Y-44003283D01*
X47941000Y-44896718D01*
X47927240Y-45036425D01*
X47927239Y-45036428D01*
X47927239Y-45036429D01*
X47872860Y-45215693D01*
X47872858Y-45215696D01*
X47872858Y-45215697D01*
X47784554Y-45380903D01*
X47665712Y-45525712D01*
X47520903Y-45644554D01*
X47355696Y-45732858D01*
X47355692Y-45732860D01*
X47176428Y-45787239D01*
X47176427Y-45787239D01*
X47176424Y-45787240D01*
X46990000Y-45805601D01*
X46803575Y-45787240D01*
X46803572Y-45787239D01*
X46803571Y-45787239D01*
X46624307Y-45732860D01*
X46624303Y-45732858D01*
X46459097Y-45644554D01*
X46314288Y-45525712D01*
X46195446Y-45380903D01*
X46107142Y-45215696D01*
X46107141Y-45215693D01*
X46107140Y-45215692D01*
X46052761Y-45036428D01*
X46052761Y-45036427D01*
X46052760Y-45036424D01*
X46039000Y-44896717D01*
X46039000Y-44003282D01*
X46052760Y-43863570D01*
X46107140Y-43684308D01*
X46195447Y-43519097D01*
X46314289Y-43374288D01*
X46459098Y-43255446D01*
X46624304Y-43167142D01*
X46624305Y-43167142D01*
X46624308Y-43167140D01*
X46803572Y-43112761D01*
X46803573Y-43112761D01*
X46803576Y-43112760D01*
X46990000Y-43094399D01*
X47176425Y-43112760D01*
G37*
G36*
X60641000Y-45801000D02*
G01*
X58739000Y-45801000D01*
X58739000Y-43099000D01*
X60641000Y-43099000D01*
X60641000Y-45801000D01*
G37*
G36*
X107531000Y-45301000D02*
G01*
X105829000Y-45301000D01*
X105829000Y-43599000D01*
X107531000Y-43599000D01*
X107531000Y-45301000D01*
G37*
G36*
X122168228Y-43631703D02*
G01*
X122323100Y-43695853D01*
X122462481Y-43788985D01*
X122581015Y-43907519D01*
X122674147Y-44046900D01*
X122738297Y-44201772D01*
X122771000Y-44366184D01*
X122771000Y-44533816D01*
X122738297Y-44698228D01*
X122674147Y-44853100D01*
X122581015Y-44992481D01*
X122462481Y-45111015D01*
X122323100Y-45204147D01*
X122168228Y-45268297D01*
X122003816Y-45301000D01*
X121836184Y-45301000D01*
X121671772Y-45268297D01*
X121516900Y-45204147D01*
X121377519Y-45111015D01*
X121258985Y-44992481D01*
X121165853Y-44853100D01*
X121101703Y-44698228D01*
X121069000Y-44533816D01*
X121069000Y-44366184D01*
X121101703Y-44201772D01*
X121165853Y-44046900D01*
X121258985Y-43907519D01*
X121377519Y-43788985D01*
X121516900Y-43695853D01*
X121671772Y-43631703D01*
X121836184Y-43599000D01*
X122003816Y-43599000D01*
X122168228Y-43631703D01*
G37*
G36*
X122033512Y-34663927D02*
G01*
X122182812Y-34693624D01*
X122346784Y-34761544D01*
X122494354Y-34860147D01*
X122619853Y-34985646D01*
X122718456Y-35133216D01*
X122786376Y-35297188D01*
X122821000Y-35471259D01*
X122821000Y-35648741D01*
X122786376Y-35822812D01*
X122718456Y-35986784D01*
X122619853Y-36134354D01*
X122494354Y-36259853D01*
X122346784Y-36358456D01*
X122182812Y-36426376D01*
X122033512Y-36456073D01*
X122008742Y-36461000D01*
X121831258Y-36461000D01*
X121806488Y-36456073D01*
X121657188Y-36426376D01*
X121493216Y-36358456D01*
X121345646Y-36259853D01*
X121220147Y-36134354D01*
X121121544Y-35986784D01*
X121053624Y-35822812D01*
X121019000Y-35648741D01*
X121019000Y-35471259D01*
X121053624Y-35297188D01*
X121121544Y-35133216D01*
X121220147Y-34985646D01*
X121345646Y-34860147D01*
X121493216Y-34761544D01*
X121657188Y-34693624D01*
X121806488Y-34663927D01*
X121831258Y-34659000D01*
X122008742Y-34659000D01*
X122033512Y-34663927D01*
G37*
G36*
X19163512Y-34663927D02*
G01*
X19312812Y-34693624D01*
X19476784Y-34761544D01*
X19624354Y-34860147D01*
X19749853Y-34985646D01*
X19848456Y-35133216D01*
X19916376Y-35297188D01*
X19951000Y-35471259D01*
X19951000Y-35648741D01*
X19916376Y-35822812D01*
X19848456Y-35986784D01*
X19749853Y-36134354D01*
X19624354Y-36259853D01*
X19476784Y-36358456D01*
X19312812Y-36426376D01*
X19163512Y-36456073D01*
X19138742Y-36461000D01*
X18961258Y-36461000D01*
X18936488Y-36456073D01*
X18787188Y-36426376D01*
X18623216Y-36358456D01*
X18475646Y-36259853D01*
X18350147Y-36134354D01*
X18251544Y-35986784D01*
X18183624Y-35822812D01*
X18149000Y-35648741D01*
X18149000Y-35471259D01*
X18183624Y-35297188D01*
X18251544Y-35133216D01*
X18350147Y-34985646D01*
X18475646Y-34860147D01*
X18623216Y-34761544D01*
X18787188Y-34693624D01*
X18936488Y-34663927D01*
X18961258Y-34659000D01*
X19138742Y-34659000D01*
X19163512Y-34663927D01*
G37*
G36*
X19951000Y-33921000D02*
G01*
X18149000Y-33921000D01*
X18149000Y-32119000D01*
X19951000Y-32119000D01*
X19951000Y-33921000D01*
G37*
G36*
X122821000Y-33921000D02*
G01*
X121019000Y-33921000D01*
X121019000Y-32119000D01*
X122821000Y-32119000D01*
X122821000Y-33921000D01*
G37*
G36*
X44766153Y-26605922D02*
G01*
X44858194Y-26644047D01*
X44988359Y-26697963D01*
X45188342Y-26831587D01*
X45358413Y-27001658D01*
X45492037Y-27201641D01*
X45496527Y-27212481D01*
X45584078Y-27423847D01*
X45584138Y-27424148D01*
X45631000Y-27659741D01*
X45631000Y-27900259D01*
X45584078Y-28136152D01*
X45492037Y-28358359D01*
X45358413Y-28558342D01*
X45188342Y-28728413D01*
X44988359Y-28862037D01*
X44858194Y-28915953D01*
X44766153Y-28954078D01*
X44648205Y-28977539D01*
X44530259Y-29001000D01*
X44289741Y-29001000D01*
X44171795Y-28977539D01*
X44053847Y-28954078D01*
X43961806Y-28915953D01*
X43831641Y-28862037D01*
X43631658Y-28728413D01*
X43461587Y-28558342D01*
X43327963Y-28358359D01*
X43235922Y-28136152D01*
X43189000Y-27900259D01*
X43189000Y-27659741D01*
X43235862Y-27424148D01*
X43235922Y-27423847D01*
X43323473Y-27212481D01*
X43327963Y-27201641D01*
X43461587Y-27001658D01*
X43631658Y-26831587D01*
X43831641Y-26697963D01*
X43961806Y-26644047D01*
X44053847Y-26605922D01*
X44289741Y-26559000D01*
X44530259Y-26559000D01*
X44766153Y-26605922D01*
G37*
G36*
X29526153Y-26605922D02*
G01*
X29618194Y-26644047D01*
X29748359Y-26697963D01*
X29948342Y-26831587D01*
X30118413Y-27001658D01*
X30252037Y-27201641D01*
X30256527Y-27212481D01*
X30344078Y-27423847D01*
X30344138Y-27424148D01*
X30391000Y-27659741D01*
X30391000Y-27900259D01*
X30344078Y-28136152D01*
X30252037Y-28358359D01*
X30118413Y-28558342D01*
X29948342Y-28728413D01*
X29748359Y-28862037D01*
X29618194Y-28915953D01*
X29526153Y-28954078D01*
X29408205Y-28977539D01*
X29290259Y-29001000D01*
X29049741Y-29001000D01*
X28931795Y-28977539D01*
X28813847Y-28954078D01*
X28721806Y-28915953D01*
X28591641Y-28862037D01*
X28391658Y-28728413D01*
X28221587Y-28558342D01*
X28087963Y-28358359D01*
X27995922Y-28136152D01*
X27949000Y-27900259D01*
X27949000Y-27659741D01*
X27995862Y-27424148D01*
X27995922Y-27423847D01*
X28083473Y-27212481D01*
X28087963Y-27201641D01*
X28221587Y-27001658D01*
X28391658Y-26831587D01*
X28591641Y-26697963D01*
X28721806Y-26644047D01*
X28813847Y-26605922D01*
X29049741Y-26559000D01*
X29290259Y-26559000D01*
X29526153Y-26605922D01*
G37*
G36*
X65047395Y-27025546D02*
G01*
X65220466Y-27097234D01*
X65220467Y-27097235D01*
X65376227Y-27201310D01*
X65508690Y-27333773D01*
X65508691Y-27333775D01*
X65612766Y-27489534D01*
X65684454Y-27662605D01*
X65721000Y-27846333D01*
X65721000Y-28033667D01*
X65684454Y-28217395D01*
X65612766Y-28390466D01*
X65612765Y-28390467D01*
X65508690Y-28546227D01*
X65376227Y-28678690D01*
X65301811Y-28728413D01*
X65220466Y-28782766D01*
X65047395Y-28854454D01*
X64863667Y-28891000D01*
X64676333Y-28891000D01*
X64492605Y-28854454D01*
X64319534Y-28782766D01*
X64238189Y-28728413D01*
X64163773Y-28678690D01*
X64031310Y-28546227D01*
X63927235Y-28390467D01*
X63927234Y-28390466D01*
X63855546Y-28217395D01*
X63819000Y-28033667D01*
X63819000Y-27846333D01*
X63855546Y-27662605D01*
X63927234Y-27489534D01*
X64031309Y-27333775D01*
X64031310Y-27333773D01*
X64163773Y-27201310D01*
X64319533Y-27097235D01*
X64319534Y-27097234D01*
X64492605Y-27025546D01*
X64676333Y-26989000D01*
X64863667Y-26989000D01*
X65047395Y-27025546D01*
G37*
G36*
X80287395Y-27025546D02*
G01*
X80460466Y-27097234D01*
X80460467Y-27097235D01*
X80616227Y-27201310D01*
X80748690Y-27333773D01*
X80748691Y-27333775D01*
X80852766Y-27489534D01*
X80924454Y-27662605D01*
X80961000Y-27846333D01*
X80961000Y-28033667D01*
X80924454Y-28217395D01*
X80852766Y-28390466D01*
X80852765Y-28390467D01*
X80748690Y-28546227D01*
X80616227Y-28678690D01*
X80541811Y-28728413D01*
X80460466Y-28782766D01*
X80287395Y-28854454D01*
X80103667Y-28891000D01*
X79916333Y-28891000D01*
X79732605Y-28854454D01*
X79559534Y-28782766D01*
X79478189Y-28728413D01*
X79403773Y-28678690D01*
X79271310Y-28546227D01*
X79167235Y-28390467D01*
X79167234Y-28390466D01*
X79095546Y-28217395D01*
X79059000Y-28033667D01*
X79059000Y-27846333D01*
X79095546Y-27662605D01*
X79167234Y-27489534D01*
X79271309Y-27333775D01*
X79271310Y-27333773D01*
X79403773Y-27201310D01*
X79559533Y-27097235D01*
X79559534Y-27097234D01*
X79732605Y-27025546D01*
X79916333Y-26989000D01*
X80103667Y-26989000D01*
X80287395Y-27025546D01*
G37*
G36*
X57427395Y-27025546D02*
G01*
X57600466Y-27097234D01*
X57600467Y-27097235D01*
X57756227Y-27201310D01*
X57888690Y-27333773D01*
X57888691Y-27333775D01*
X57992766Y-27489534D01*
X58064454Y-27662605D01*
X58101000Y-27846333D01*
X58101000Y-28033667D01*
X58064454Y-28217395D01*
X57992766Y-28390466D01*
X57992765Y-28390467D01*
X57888690Y-28546227D01*
X57756227Y-28678690D01*
X57681811Y-28728413D01*
X57600466Y-28782766D01*
X57427395Y-28854454D01*
X57243667Y-28891000D01*
X57056333Y-28891000D01*
X56872605Y-28854454D01*
X56699534Y-28782766D01*
X56618189Y-28728413D01*
X56543773Y-28678690D01*
X56411310Y-28546227D01*
X56307235Y-28390467D01*
X56307234Y-28390466D01*
X56235546Y-28217395D01*
X56199000Y-28033667D01*
X56199000Y-27846333D01*
X56235546Y-27662605D01*
X56307234Y-27489534D01*
X56411309Y-27333775D01*
X56411310Y-27333773D01*
X56543773Y-27201310D01*
X56699533Y-27097235D01*
X56699534Y-27097234D01*
X56872605Y-27025546D01*
X57056333Y-26989000D01*
X57243667Y-26989000D01*
X57427395Y-27025546D01*
G37*
G36*
X87907395Y-27025546D02*
G01*
X88080466Y-27097234D01*
X88080467Y-27097235D01*
X88236227Y-27201310D01*
X88368690Y-27333773D01*
X88368691Y-27333775D01*
X88472766Y-27489534D01*
X88544454Y-27662605D01*
X88581000Y-27846333D01*
X88581000Y-28033667D01*
X88544454Y-28217395D01*
X88472766Y-28390466D01*
X88472765Y-28390467D01*
X88368690Y-28546227D01*
X88236227Y-28678690D01*
X88161811Y-28728413D01*
X88080466Y-28782766D01*
X87907395Y-28854454D01*
X87723667Y-28891000D01*
X87536333Y-28891000D01*
X87352605Y-28854454D01*
X87179534Y-28782766D01*
X87098189Y-28728413D01*
X87023773Y-28678690D01*
X86891310Y-28546227D01*
X86787235Y-28390467D01*
X86787234Y-28390466D01*
X86715546Y-28217395D01*
X86679000Y-28033667D01*
X86679000Y-27846333D01*
X86715546Y-27662605D01*
X86787234Y-27489534D01*
X86891309Y-27333775D01*
X86891310Y-27333773D01*
X87023773Y-27201310D01*
X87179533Y-27097235D01*
X87179534Y-27097234D01*
X87352605Y-27025546D01*
X87536333Y-26989000D01*
X87723667Y-26989000D01*
X87907395Y-27025546D01*
G37*
G36*
X92958228Y-25851703D02*
G01*
X93113100Y-25915853D01*
X93252481Y-26008985D01*
X93371015Y-26127519D01*
X93464147Y-26266900D01*
X93528297Y-26421772D01*
X93561000Y-26586184D01*
X93561000Y-26753816D01*
X93528297Y-26918228D01*
X93464147Y-27073100D01*
X93371015Y-27212481D01*
X93252481Y-27331015D01*
X93113100Y-27424147D01*
X92958228Y-27488297D01*
X92793816Y-27521000D01*
X92626184Y-27521000D01*
X92461772Y-27488297D01*
X92306900Y-27424147D01*
X92167519Y-27331015D01*
X92048985Y-27212481D01*
X91955853Y-27073100D01*
X91891703Y-26918228D01*
X91859000Y-26753816D01*
X91859000Y-26586184D01*
X91891703Y-26421772D01*
X91955853Y-26266900D01*
X92048985Y-26127519D01*
X92167519Y-26008985D01*
X92306900Y-25915853D01*
X92461772Y-25851703D01*
X92626184Y-25819000D01*
X92793816Y-25819000D01*
X92958228Y-25851703D01*
G37*
G36*
X70098228Y-25851703D02*
G01*
X70253100Y-25915853D01*
X70392481Y-26008985D01*
X70511015Y-26127519D01*
X70604147Y-26266900D01*
X70668297Y-26421772D01*
X70701000Y-26586184D01*
X70701000Y-26753816D01*
X70668297Y-26918228D01*
X70604147Y-27073100D01*
X70511015Y-27212481D01*
X70392481Y-27331015D01*
X70253100Y-27424147D01*
X70098228Y-27488297D01*
X69933816Y-27521000D01*
X69766184Y-27521000D01*
X69601772Y-27488297D01*
X69446900Y-27424147D01*
X69307519Y-27331015D01*
X69188985Y-27212481D01*
X69095853Y-27073100D01*
X69031703Y-26918228D01*
X68999000Y-26753816D01*
X68999000Y-26586184D01*
X69031703Y-26421772D01*
X69095853Y-26266900D01*
X69188985Y-26127519D01*
X69307519Y-26008985D01*
X69446900Y-25915853D01*
X69601772Y-25851703D01*
X69766184Y-25819000D01*
X69933816Y-25819000D01*
X70098228Y-25851703D01*
G37*
G36*
X29768254Y-20807818D02*
G01*
X30141511Y-20962426D01*
X30141513Y-20962427D01*
X30182738Y-20989973D01*
X30477436Y-21186884D01*
X30763116Y-21472564D01*
X30987574Y-21808489D01*
X31142182Y-22181746D01*
X31221000Y-22577993D01*
X31221000Y-22982007D01*
X31142182Y-23378254D01*
X30987574Y-23751511D01*
X30987573Y-23751513D01*
X30763116Y-24087436D01*
X30477436Y-24373116D01*
X30141513Y-24597573D01*
X30141512Y-24597574D01*
X30141511Y-24597574D01*
X29768254Y-24752182D01*
X29372007Y-24831000D01*
X28967993Y-24831000D01*
X28571746Y-24752182D01*
X28198489Y-24597574D01*
X28198488Y-24597574D01*
X28198487Y-24597573D01*
X27862564Y-24373116D01*
X27576884Y-24087436D01*
X27352427Y-23751513D01*
X27352426Y-23751511D01*
X27197818Y-23378254D01*
X27119000Y-22982007D01*
X27119000Y-22577993D01*
X27197818Y-22181746D01*
X27352426Y-21808489D01*
X27576884Y-21472564D01*
X27862564Y-21186884D01*
X28157262Y-20989973D01*
X28198487Y-20962427D01*
X28198489Y-20962426D01*
X28571746Y-20807818D01*
X28967993Y-20729000D01*
X29372007Y-20729000D01*
X29768254Y-20807818D01*
G37*
G36*
X45008254Y-20807818D02*
G01*
X45381511Y-20962426D01*
X45381513Y-20962427D01*
X45422738Y-20989973D01*
X45717436Y-21186884D01*
X46003116Y-21472564D01*
X46227574Y-21808489D01*
X46382182Y-22181746D01*
X46461000Y-22577993D01*
X46461000Y-22982007D01*
X46382182Y-23378254D01*
X46227574Y-23751511D01*
X46227573Y-23751513D01*
X46003116Y-24087436D01*
X45717436Y-24373116D01*
X45381513Y-24597573D01*
X45381512Y-24597574D01*
X45381511Y-24597574D01*
X45008254Y-24752182D01*
X44612007Y-24831000D01*
X44207993Y-24831000D01*
X43811746Y-24752182D01*
X43438489Y-24597574D01*
X43438488Y-24597574D01*
X43438487Y-24597573D01*
X43102564Y-24373116D01*
X42816884Y-24087436D01*
X42592427Y-23751513D01*
X42592426Y-23751511D01*
X42437818Y-23378254D01*
X42359000Y-22982007D01*
X42359000Y-22577993D01*
X42437818Y-22181746D01*
X42592426Y-21808489D01*
X42816884Y-21472564D01*
X43102564Y-21186884D01*
X43397262Y-20989973D01*
X43438487Y-20962427D01*
X43438489Y-20962426D01*
X43811746Y-20807818D01*
X44207993Y-20729000D01*
X44612007Y-20729000D01*
X45008254Y-20807818D01*
G37*
G36*
X107731000Y-21371000D02*
G01*
X105629000Y-21371000D01*
X105629000Y-19269000D01*
X107731000Y-19269000D01*
X107731000Y-21371000D01*
G37*
G36*
X111986564Y-19309389D02*
G01*
X112177833Y-19388615D01*
X112177835Y-19388616D01*
X112349973Y-19503635D01*
X112496365Y-19650027D01*
X112599345Y-19804147D01*
X112611385Y-19822167D01*
X112690611Y-20013436D01*
X112731000Y-20216484D01*
X112731000Y-20423516D01*
X112690611Y-20626564D01*
X112615533Y-20807818D01*
X112611384Y-20817835D01*
X112496365Y-20989973D01*
X112349973Y-21136365D01*
X112177835Y-21251384D01*
X112177834Y-21251385D01*
X112177833Y-21251385D01*
X111986564Y-21330611D01*
X111783516Y-21371000D01*
X111576484Y-21371000D01*
X111373436Y-21330611D01*
X111182167Y-21251385D01*
X111182166Y-21251385D01*
X111182165Y-21251384D01*
X111010027Y-21136365D01*
X110863635Y-20989973D01*
X110748616Y-20817835D01*
X110744467Y-20807818D01*
X110669389Y-20626564D01*
X110629000Y-20423516D01*
X110629000Y-20216484D01*
X110669389Y-20013436D01*
X110748615Y-19822167D01*
X110760656Y-19804147D01*
X110863635Y-19650027D01*
X111010027Y-19503635D01*
X111182165Y-19388616D01*
X111182167Y-19388615D01*
X111373436Y-19309389D01*
X111576484Y-19269000D01*
X111783516Y-19269000D01*
X111986564Y-19309389D01*
G37*
G36*
X70098228Y-18231703D02*
G01*
X70253100Y-18295853D01*
X70392481Y-18388985D01*
X70511015Y-18507519D01*
X70604147Y-18646900D01*
X70668297Y-18801772D01*
X70701000Y-18966184D01*
X70701000Y-19133816D01*
X70668297Y-19298228D01*
X70604147Y-19453100D01*
X70511015Y-19592481D01*
X70392481Y-19711015D01*
X70253100Y-19804147D01*
X70098228Y-19868297D01*
X69933816Y-19901000D01*
X69766184Y-19901000D01*
X69601772Y-19868297D01*
X69446900Y-19804147D01*
X69307519Y-19711015D01*
X69188985Y-19592481D01*
X69095853Y-19453100D01*
X69031703Y-19298228D01*
X68999000Y-19133816D01*
X68999000Y-18966184D01*
X69031703Y-18801772D01*
X69095853Y-18646900D01*
X69188985Y-18507519D01*
X69307519Y-18388985D01*
X69446900Y-18295853D01*
X69601772Y-18231703D01*
X69766184Y-18199000D01*
X69933816Y-18199000D01*
X70098228Y-18231703D01*
G37*
G36*
X92958228Y-18231703D02*
G01*
X93113100Y-18295853D01*
X93252481Y-18388985D01*
X93371015Y-18507519D01*
X93464147Y-18646900D01*
X93528297Y-18801772D01*
X93561000Y-18966184D01*
X93561000Y-19133816D01*
X93528297Y-19298228D01*
X93464147Y-19453100D01*
X93371015Y-19592481D01*
X93252481Y-19711015D01*
X93113100Y-19804147D01*
X92958228Y-19868297D01*
X92793816Y-19901000D01*
X92626184Y-19901000D01*
X92461772Y-19868297D01*
X92306900Y-19804147D01*
X92167519Y-19711015D01*
X92048985Y-19592481D01*
X91955853Y-19453100D01*
X91891703Y-19298228D01*
X91859000Y-19133816D01*
X91859000Y-18966184D01*
X91891703Y-18801772D01*
X91955853Y-18646900D01*
X92048985Y-18507519D01*
X92167519Y-18388985D01*
X92306900Y-18295853D01*
X92461772Y-18231703D01*
X92626184Y-18199000D01*
X92793816Y-18199000D01*
X92958228Y-18231703D01*
G37*
G36*
X26908205Y-16582461D02*
G01*
X27026153Y-16605922D01*
X27118194Y-16644047D01*
X27248359Y-16697963D01*
X27448342Y-16831587D01*
X27618413Y-17001658D01*
X27752037Y-17201641D01*
X27844078Y-17423848D01*
X27891000Y-17659741D01*
X27891000Y-17900259D01*
X27844078Y-18136152D01*
X27752037Y-18358359D01*
X27618413Y-18558342D01*
X27448342Y-18728413D01*
X27248359Y-18862037D01*
X27118194Y-18915953D01*
X27026153Y-18954078D01*
X26965291Y-18966184D01*
X26790259Y-19001000D01*
X26549741Y-19001000D01*
X26374709Y-18966184D01*
X26313847Y-18954078D01*
X26221806Y-18915953D01*
X26091641Y-18862037D01*
X25891658Y-18728413D01*
X25721587Y-18558342D01*
X25587963Y-18358359D01*
X25495922Y-18136152D01*
X25449000Y-17900259D01*
X25449000Y-17659741D01*
X25495922Y-17423848D01*
X25587963Y-17201641D01*
X25721587Y-17001658D01*
X25891658Y-16831587D01*
X26091641Y-16697963D01*
X26221806Y-16644047D01*
X26313847Y-16605922D01*
X26431795Y-16582461D01*
X26549741Y-16559000D01*
X26790259Y-16559000D01*
X26908205Y-16582461D01*
G37*
G36*
X31908205Y-16582461D02*
G01*
X32026153Y-16605922D01*
X32118194Y-16644047D01*
X32248359Y-16697963D01*
X32448342Y-16831587D01*
X32618413Y-17001658D01*
X32752037Y-17201641D01*
X32844078Y-17423848D01*
X32891000Y-17659741D01*
X32891000Y-17900259D01*
X32844078Y-18136152D01*
X32752037Y-18358359D01*
X32618413Y-18558342D01*
X32448342Y-18728413D01*
X32248359Y-18862037D01*
X32118194Y-18915953D01*
X32026153Y-18954078D01*
X31965291Y-18966184D01*
X31790259Y-19001000D01*
X31549741Y-19001000D01*
X31374709Y-18966184D01*
X31313847Y-18954078D01*
X31221806Y-18915953D01*
X31091641Y-18862037D01*
X30891658Y-18728413D01*
X30721587Y-18558342D01*
X30587963Y-18358359D01*
X30495922Y-18136152D01*
X30449000Y-17900259D01*
X30449000Y-17659741D01*
X30495922Y-17423848D01*
X30587963Y-17201641D01*
X30721587Y-17001658D01*
X30891658Y-16831587D01*
X31091641Y-16697963D01*
X31221806Y-16644047D01*
X31313847Y-16605922D01*
X31431795Y-16582461D01*
X31549741Y-16559000D01*
X31790259Y-16559000D01*
X31908205Y-16582461D01*
G37*
G36*
X47148205Y-16582461D02*
G01*
X47266153Y-16605922D01*
X47358194Y-16644047D01*
X47488359Y-16697963D01*
X47688342Y-16831587D01*
X47858413Y-17001658D01*
X47992037Y-17201641D01*
X48084078Y-17423848D01*
X48131000Y-17659741D01*
X48131000Y-17900259D01*
X48084078Y-18136152D01*
X47992037Y-18358359D01*
X47858413Y-18558342D01*
X47688342Y-18728413D01*
X47488359Y-18862037D01*
X47358194Y-18915953D01*
X47266153Y-18954078D01*
X47205291Y-18966184D01*
X47030259Y-19001000D01*
X46789741Y-19001000D01*
X46614709Y-18966184D01*
X46553847Y-18954078D01*
X46461806Y-18915953D01*
X46331641Y-18862037D01*
X46131658Y-18728413D01*
X45961587Y-18558342D01*
X45827963Y-18358359D01*
X45735922Y-18136152D01*
X45689000Y-17900259D01*
X45689000Y-17659741D01*
X45735922Y-17423848D01*
X45827963Y-17201641D01*
X45961587Y-17001658D01*
X46131658Y-16831587D01*
X46331641Y-16697963D01*
X46461806Y-16644047D01*
X46553847Y-16605922D01*
X46671795Y-16582461D01*
X46789741Y-16559000D01*
X47030259Y-16559000D01*
X47148205Y-16582461D01*
G37*
G36*
X42148205Y-16582461D02*
G01*
X42266153Y-16605922D01*
X42358194Y-16644047D01*
X42488359Y-16697963D01*
X42688342Y-16831587D01*
X42858413Y-17001658D01*
X42992037Y-17201641D01*
X43084078Y-17423848D01*
X43131000Y-17659741D01*
X43131000Y-17900259D01*
X43084078Y-18136152D01*
X42992037Y-18358359D01*
X42858413Y-18558342D01*
X42688342Y-18728413D01*
X42488359Y-18862037D01*
X42358194Y-18915953D01*
X42266153Y-18954078D01*
X42205291Y-18966184D01*
X42030259Y-19001000D01*
X41789741Y-19001000D01*
X41614709Y-18966184D01*
X41553847Y-18954078D01*
X41461806Y-18915953D01*
X41331641Y-18862037D01*
X41131658Y-18728413D01*
X40961587Y-18558342D01*
X40827963Y-18358359D01*
X40735922Y-18136152D01*
X40689000Y-17900259D01*
X40689000Y-17659741D01*
X40735922Y-17423848D01*
X40827963Y-17201641D01*
X40961587Y-17001658D01*
X41131658Y-16831587D01*
X41331641Y-16697963D01*
X41461806Y-16644047D01*
X41553847Y-16605922D01*
X41671795Y-16582461D01*
X41789741Y-16559000D01*
X42030259Y-16559000D01*
X42148205Y-16582461D01*
G37*
G36*
X87907395Y-16865546D02*
G01*
X88080466Y-16937234D01*
X88080467Y-16937235D01*
X88236227Y-17041310D01*
X88368690Y-17173773D01*
X88421081Y-17252182D01*
X88472766Y-17329534D01*
X88544454Y-17502605D01*
X88581000Y-17686333D01*
X88581000Y-17873667D01*
X88544454Y-18057395D01*
X88472766Y-18230466D01*
X88472765Y-18230467D01*
X88368690Y-18386227D01*
X88236227Y-18518690D01*
X88176883Y-18558342D01*
X88080466Y-18622766D01*
X87907395Y-18694454D01*
X87723667Y-18731000D01*
X87536333Y-18731000D01*
X87352605Y-18694454D01*
X87179534Y-18622766D01*
X87083117Y-18558342D01*
X87023773Y-18518690D01*
X86891310Y-18386227D01*
X86787235Y-18230467D01*
X86787234Y-18230466D01*
X86715546Y-18057395D01*
X86679000Y-17873667D01*
X86679000Y-17686333D01*
X86715546Y-17502605D01*
X86787234Y-17329534D01*
X86838919Y-17252182D01*
X86891310Y-17173773D01*
X87023773Y-17041310D01*
X87179533Y-16937235D01*
X87179534Y-16937234D01*
X87352605Y-16865546D01*
X87536333Y-16829000D01*
X87723667Y-16829000D01*
X87907395Y-16865546D01*
G37*
G36*
X80961000Y-18731000D02*
G01*
X79059000Y-18731000D01*
X79059000Y-16829000D01*
X80961000Y-16829000D01*
X80961000Y-18731000D01*
G37*
G36*
X65047395Y-16865546D02*
G01*
X65220466Y-16937234D01*
X65220467Y-16937235D01*
X65376227Y-17041310D01*
X65508690Y-17173773D01*
X65561081Y-17252182D01*
X65612766Y-17329534D01*
X65684454Y-17502605D01*
X65721000Y-17686333D01*
X65721000Y-17873667D01*
X65684454Y-18057395D01*
X65612766Y-18230466D01*
X65612765Y-18230467D01*
X65508690Y-18386227D01*
X65376227Y-18518690D01*
X65316883Y-18558342D01*
X65220466Y-18622766D01*
X65047395Y-18694454D01*
X64863667Y-18731000D01*
X64676333Y-18731000D01*
X64492605Y-18694454D01*
X64319534Y-18622766D01*
X64223117Y-18558342D01*
X64163773Y-18518690D01*
X64031310Y-18386227D01*
X63927235Y-18230467D01*
X63927234Y-18230466D01*
X63855546Y-18057395D01*
X63819000Y-17873667D01*
X63819000Y-17686333D01*
X63855546Y-17502605D01*
X63927234Y-17329534D01*
X63978919Y-17252182D01*
X64031310Y-17173773D01*
X64163773Y-17041310D01*
X64319533Y-16937235D01*
X64319534Y-16937234D01*
X64492605Y-16865546D01*
X64676333Y-16829000D01*
X64863667Y-16829000D01*
X65047395Y-16865546D01*
G37*
G36*
X58101000Y-18731000D02*
G01*
X56199000Y-18731000D01*
X56199000Y-16829000D01*
X58101000Y-16829000D01*
X58101000Y-18731000D01*
G37*
M02*
